<?xml version="1.0" encoding="utf-8"?>
<svg width="308.7612359841165" height="304.915625" viewBox="0 0 106.00782394174519 104.68749999999999" class="css-1j8o68f" version="1.1" id="svg23" xmlns="http://www.w3.org/2000/svg">
  <path d="M 69.719 2.042 C 69.686 2.076 69.686 2.076 69.65 2.111 C 69.43 2.326 69.211 2.542 68.99 2.758 C 68.877 2.869 68.763 2.979 68.652 3.09 C 68.542 3.198 68.433 3.305 68.324 3.413 C 68.282 3.453 68.241 3.494 68.199 3.535 C 67.986 3.743 67.776 3.951 67.582 4.177 C 67.515 4.254 67.444 4.325 67.371 4.395 C 67.243 4.518 67.126 4.646 67.01 4.779 C 66.928 4.872 66.844 4.963 66.759 5.052 C 66.556 5.267 66.364 5.489 66.177 5.717 C 66.07 5.842 65.959 5.963 65.847 6.083 C 65.666 6.274 65.497 6.469 65.329 6.673 C 65.223 6.802 65.114 6.928 65.004 7.054 C 64.826 7.26 64.653 7.472 64.483 7.686 C 64.33 7.882 64.169 8.074 64.007 8.265 C 63.795 8.517 63.59 8.773 63.392 9.036 C 63.23 9.249 63.065 9.461 62.898 9.67 C 62.67 9.956 62.452 10.248 62.239 10.545 C 62.131 10.694 62.022 10.842 61.914 10.99 C 61.732 11.236 61.551 11.484 61.374 11.732 C 61.355 11.758 61.337 11.783 61.319 11.809 C 60.934 12.344 60.561 12.888 60.193 13.432 C 60.172 13.461 60.153 13.492 60.131 13.524 C 59.838 13.957 59.547 14.39 59.261 14.83 C 59.234 14.873 59.234 14.873 59.205 14.916 C 58.347 16.235 57.538 17.586 56.763 18.954 C 56.736 19.002 56.71 19.048 56.682 19.097 C 56.322 19.732 55.971 20.369 55.633 21.014 C 55.565 21.143 55.497 21.268 55.428 21.396 C 54.959 22.264 54.514 23.144 54.1 24.04 C 54.088 24.068 54.074 24.095 54.061 24.124 C 53.926 24.416 53.796 24.707 53.676 25.003 C 53.455 25.537 53.258 25.901 52.783 26.244 C 52.699 26.31 52.617 26.377 52.533 26.445 C 52.477 26.489 52.477 26.489 52.419 26.534 C 52.302 26.631 52.197 26.734 52.09 26.841 C 51.992 26.939 51.884 27.029 51.778 27.119 C 51.596 27.275 51.419 27.438 51.241 27.599 C 51.176 27.659 51.109 27.718 51.044 27.777 C 50.903 27.904 50.763 28.032 50.623 28.16 C 50.596 28.186 50.568 28.211 50.541 28.237 C 50.172 28.572 49.812 28.913 49.459 29.264 C 49.332 29.39 49.205 29.514 49.068 29.629 C 48.89 29.78 48.724 29.938 48.56 30.102 C 48.529 30.13 48.499 30.161 48.468 30.191 C 48.406 30.252 48.344 30.313 48.281 30.376 C 48.186 30.469 48.091 30.563 47.996 30.655 C 47.935 30.716 47.875 30.776 47.812 30.836 C 47.785 30.863 47.756 30.891 47.727 30.919 C 47.564 31.08 47.411 31.247 47.259 31.418 C 47.182 31.507 47.101 31.588 47.017 31.668 C 46.988 31.698 46.957 31.728 46.926 31.757 C 46.864 31.816 46.803 31.877 46.741 31.936 C 46.568 32.106 46.401 32.277 46.242 32.46 C 46.134 32.582 46.016 32.694 45.898 32.806 C 45.786 32.918 45.683 33.035 45.578 33.154 C 45.425 33.326 45.263 33.491 45.102 33.659 C 44.942 33.824 44.786 33.994 44.634 34.167 C 44.552 34.259 44.468 34.35 44.382 34.443 C 44.25 34.586 44.125 34.732 44.002 34.882 C 43.865 35.048 43.721 35.21 43.572 35.367 C 43.395 35.555 43.225 35.75 43.062 35.951 C 42.941 36.097 42.815 36.237 42.688 36.379 C 42.49 36.603 42.299 36.833 42.113 37.07 C 41.984 37.231 41.85 37.389 41.715 37.546 C 41.512 37.778 41.322 38.018 41.134 38.264 C 40.98 38.463 40.821 38.662 40.66 38.858 C 40.447 39.119 40.24 39.386 40.037 39.657 C 39.992 39.717 39.946 39.777 39.901 39.838 C 39.175 40.803 38.464 41.777 37.793 42.781 C 37.768 42.819 37.744 42.856 37.717 42.893 C 37.139 43.757 36.587 44.636 36.056 45.53 C 36.026 45.583 36.026 45.583 35.994 45.637 C 34.193 48.676 32.711 51.945 31.97 55.398 C 31.96 55.447 31.949 55.498 31.938 55.55 C 31.927 55.595 31.918 55.642 31.907 55.692 C 31.9 55.733 31.891 55.774 31.881 55.815 C 31.839 56.134 31.879 56.37 31.982 56.671 C 31.999 56.727 31.999 56.727 32.019 56.784 C 32.06 56.907 32.101 57.03 32.143 57.152 C 32.156 57.195 32.172 57.238 32.185 57.28 C 32.934 59.51 33.861 61.669 34.913 63.775 C 34.934 63.819 34.934 63.819 34.958 63.865 C 35.354 64.658 35.754 65.444 36.206 66.209 C 36.291 66.357 36.373 66.506 36.455 66.655 C 36.73 67.16 37.026 67.652 37.33 68.142 C 37.41 68.272 37.491 68.402 37.569 68.533 C 37.982 69.202 38.419 69.853 38.864 70.501 C 38.989 70.686 39.115 70.873 39.242 71.059 C 39.498 71.44 39.765 71.816 40.037 72.189 C 40.059 72.22 40.081 72.249 40.102 72.28 C 40.479 72.8 40.869 73.309 41.265 73.814 C 41.305 73.867 41.346 73.917 41.386 73.97 C 41.486 74.1 41.587 74.226 41.689 74.356 C 41.706 74.38 41.725 74.402 41.744 74.427 C 41.992 74.741 42.246 75.05 42.51 75.353 C 42.61 75.47 42.709 75.587 42.809 75.707 C 43.143 76.113 43.493 76.508 43.848 76.897 C 43.834 76.924 43.821 76.952 43.805 76.981 C 39.559 76.118 35.384 74.962 26.53 72.065 C 26.491 72.052 26.453 72.036 26.414 72.023 C 25.905 71.84 25.399 71.653 24.894 71.463 C 24.623 71.361 24.351 71.263 24.077 71.17 C 23.892 71.104 23.708 71.038 23.522 70.973 C 23.437 70.941 23.349 70.91 23.261 70.881 C 22.604 70.664 22.281 70.381 21.932 69.792 C 21.852 69.659 21.764 69.532 21.674 69.404 C 20.958 68.38 20.335 67.291 19.74 66.197 C 19.668 66.065 19.596 65.934 19.523 65.804 C 18.845 64.583 18.237 63.324 17.66 62.055 C 17.581 61.88 17.501 61.708 17.42 61.535 C 16.169 58.838 15.102 56.051 14.104 53.254 C 14.062 53.139 14.02 53.023 13.977 52.907 C 13.927 52.77 13.877 52.632 13.828 52.494 C 13.808 52.439 13.808 52.439 13.786 52.384 C 13.617 51.899 13.705 51.404 13.785 50.91 C 13.792 50.866 13.792 50.866 13.8 50.822 C 13.905 50.177 14.048 49.54 14.206 48.904 C 14.219 48.856 14.23 48.809 14.243 48.76 C 14.748 46.705 15.507 44.697 16.408 42.781 C 16.433 42.731 16.458 42.679 16.48 42.629 C 16.938 41.647 17.418 40.678 17.951 39.734 C 18.021 39.611 18.088 39.489 18.156 39.367 C 19.254 37.411 20.511 35.532 21.872 33.742 C 21.893 33.712 21.916 33.682 21.939 33.653 C 22.465 32.958 22.998 32.27 23.558 31.602 C 23.619 31.529 23.679 31.456 23.741 31.382 C 23.939 31.14 24.144 30.903 24.352 30.668 C 24.479 30.52 24.606 30.371 24.73 30.219 C 24.914 29.996 25.111 29.787 25.311 29.576 C 25.428 29.452 25.541 29.327 25.654 29.198 C 25.92 28.898 26.195 28.604 26.47 28.312 C 26.559 28.219 26.648 28.124 26.735 28.029 C 27.251 27.481 27.79 26.955 28.328 26.427 C 28.468 26.289 28.609 26.15 28.75 26.012 C 28.859 25.904 28.969 25.796 29.078 25.689 C 29.131 25.637 29.182 25.586 29.234 25.535 C 29.721 25.055 29.721 25.055 29.975 24.845 C 30.05 24.78 30.122 24.712 30.192 24.64 C 30.287 24.545 30.385 24.454 30.488 24.367 C 30.662 24.22 30.829 24.066 30.998 23.911 C 31.213 23.713 31.428 23.517 31.653 23.328 C 31.75 23.246 31.847 23.165 31.944 23.083 C 31.97 23.062 31.995 23.04 32.022 23.017 C 32.172 22.892 32.32 22.764 32.465 22.633 C 32.642 22.475 32.824 22.328 33.009 22.18 C 33.149 22.067 33.287 21.95 33.423 21.833 C 33.644 21.645 33.87 21.465 34.1 21.291 C 34.27 21.161 34.434 21.028 34.595 20.891 C 34.853 20.676 35.116 20.469 35.383 20.266 C 35.469 20.2 35.554 20.135 35.639 20.069 C 36.358 19.517 37.084 18.972 37.821 18.443 C 37.92 18.371 38.02 18.298 38.119 18.226 C 38.564 17.901 39.014 17.586 39.468 17.275 C 39.565 17.209 39.66 17.144 39.755 17.077 C 40.42 16.611 41.102 16.17 41.782 15.726 C 41.966 15.605 42.151 15.484 42.337 15.364 C 44.002 14.263 45.715 13.238 47.448 12.248 C 47.518 12.207 47.518 12.207 47.591 12.165 C 48.175 11.832 48.761 11.503 49.351 11.181 C 49.515 11.09 49.677 11.001 49.839 10.909 C 50.798 10.37 51.778 9.869 52.76 9.371 C 52.953 9.274 53.144 9.175 53.336 9.076 C 53.882 8.791 54.435 8.517 54.989 8.244 C 55.118 8.182 55.245 8.118 55.374 8.054 C 56.017 7.738 56.663 7.427 57.313 7.124 C 57.377 7.095 57.438 7.065 57.502 7.036 C 58.351 6.639 59.205 6.251 60.063 5.871 C 60.121 5.845 60.18 5.82 60.239 5.794 C 61.402 5.278 62.575 4.782 63.751 4.291 C 63.784 4.277 63.819 4.263 63.854 4.248 C 65.064 3.743 66.286 3.265 67.509 2.786 C 67.749 2.693 67.99 2.598 68.23 2.503 C 68.393 2.439 68.556 2.375 68.72 2.313 C 68.794 2.283 68.868 2.254 68.942 2.225 C 69.042 2.185 69.143 2.146 69.244 2.107 C 69.288 2.09 69.288 2.09 69.332 2.072 C 69.482 2.014 69.567 1.995 69.719 2.042 Z" fill="#7933A5" style=""/>
  <path d="M 93.009 17.538 C 93.009 17.565 93.009 17.593 93.009 17.62 C 92.984 17.632 92.958 17.642 92.931 17.652 C 91.798 18.108 90.699 18.621 89.642 19.228 C 89.512 19.302 89.381 19.373 89.25 19.444 C 88.292 19.958 87.387 20.551 86.483 21.151 C 86.367 21.227 86.252 21.304 86.137 21.381 C 85.363 21.894 84.618 22.446 83.876 23.004 C 83.791 23.069 83.704 23.134 83.616 23.199 C 83.326 23.417 83.043 23.641 82.763 23.869 C 82.688 23.93 82.611 23.992 82.535 24.051 C 82.339 24.209 82.145 24.371 81.951 24.532 C 81.807 24.653 81.662 24.771 81.513 24.888 C 81.286 25.07 81.071 25.265 80.858 25.462 C 80.758 25.551 80.66 25.639 80.558 25.725 C 80.351 25.902 80.15 26.085 79.948 26.268 C 79.887 26.325 79.825 26.379 79.763 26.435 C 79.132 27.002 78.515 27.583 77.911 28.178 C 77.803 28.286 77.692 28.395 77.581 28.502 C 77.51 28.572 77.439 28.642 77.368 28.712 C 77.32 28.76 77.32 28.76 77.271 28.809 C 77.098 28.979 76.929 29.155 76.771 29.339 C 76.689 29.429 76.604 29.514 76.517 29.598 C 76.378 29.733 76.247 29.871 76.121 30.017 C 75.996 30.156 75.867 30.289 75.739 30.423 C 75.534 30.637 75.339 30.856 75.152 31.086 C 75.04 31.22 74.922 31.345 74.802 31.472 C 74.615 31.667 74.44 31.868 74.268 32.078 C 74.145 32.227 74.018 32.371 73.889 32.515 C 73.711 32.716 73.536 32.92 73.369 33.129 C 73.298 33.217 73.226 33.305 73.154 33.391 C 72.889 33.707 72.632 34.029 72.38 34.354 C 72.232 34.548 72.08 34.737 71.926 34.925 C 71.656 35.252 71.404 35.59 71.152 35.931 C 71.077 36.033 71 36.134 70.924 36.234 C 70.686 36.551 70.449 36.869 70.218 37.191 C 70.198 37.221 70.176 37.251 70.155 37.279 C 70.057 37.414 69.962 37.55 69.868 37.688 C 69.582 38.1 69.248 38.452 68.861 38.775 C 68.582 39.013 68.326 39.274 68.066 39.53 C 68.007 39.587 67.951 39.644 67.892 39.701 C 67.771 39.819 67.651 39.937 67.531 40.055 C 67.378 40.208 67.225 40.358 67.07 40.509 C 66.951 40.626 66.833 40.743 66.714 40.86 C 66.657 40.916 66.601 40.971 66.544 41.027 C 66.16 41.402 66.16 41.402 65.798 41.799 C 65.734 41.873 65.665 41.941 65.592 42.01 C 65.466 42.132 65.351 42.259 65.236 42.392 C 65.124 42.516 65.009 42.638 64.894 42.761 C 64.6 43.071 64.319 43.391 64.039 43.713 C 63.879 43.897 63.718 44.08 63.557 44.263 C 63.223 44.641 62.89 45.022 62.573 45.414 C 62.501 45.505 62.427 45.593 62.354 45.68 C 62.101 45.985 61.853 46.292 61.616 46.607 C 61.456 46.819 61.292 47.026 61.126 47.233 C 60.858 47.573 60.6 47.92 60.346 48.269 C 60.256 48.394 60.165 48.516 60.074 48.64 C 59.958 48.797 59.842 48.954 59.727 49.113 C 59.706 49.143 59.683 49.173 59.662 49.204 C 59.157 49.895 58.685 50.61 58.215 51.324 C 58.166 51.395 58.118 51.466 58.071 51.538 C 57.645 52.183 57.246 52.845 56.849 53.509 C 56.78 53.625 56.71 53.741 56.64 53.857 C 56.133 54.692 55.665 55.55 55.214 56.416 C 55.112 56.613 55.008 56.808 54.903 57.002 C 54.354 58.013 53.882 59.061 53.417 60.11 C 53.404 60.141 53.391 60.172 53.375 60.206 C 51.834 63.683 50.658 67.32 49.167 76.527 C 49.153 76.791 49.138 77.052 49.098 77.313 C 48.815 77.356 48.537 77.361 48.251 77.361 C 48.203 77.361 48.154 77.361 48.105 77.361 C 48.002 77.361 47.902 77.361 47.799 77.361 C 47.645 77.361 47.489 77.361 47.334 77.361 C 47.235 77.361 47.136 77.361 47.037 77.361 C 46.967 77.361 46.967 77.361 46.898 77.361 C 46.769 77.361 46.643 77.358 46.515 77.355 C 46.478 77.356 46.44 77.357 46.402 77.357 C 46.136 77.35 46.005 77.272 45.82 77.089 C 45.775 77.041 45.775 77.041 45.728 76.993 C 45.695 76.96 45.663 76.928 45.629 76.895 C 45.526 76.792 45.425 76.687 45.321 76.581 C 45.253 76.512 45.184 76.443 45.115 76.374 C 44.849 76.106 44.586 75.838 44.337 75.554 C 44.235 75.439 44.129 75.329 44.023 75.218 C 43.833 75.018 43.655 74.813 43.481 74.6 C 43.369 74.464 43.251 74.33 43.133 74.198 C 42.905 73.936 42.686 73.667 42.471 73.394 C 42.404 73.31 42.335 73.223 42.266 73.137 C 41.945 72.734 41.634 72.324 41.331 71.906 C 41.269 71.819 41.204 71.734 41.14 71.648 C 40.673 71.027 40.25 70.381 39.825 69.732 C 39.799 69.693 39.772 69.653 39.745 69.612 C 39.193 68.767 38.674 67.902 38.175 67.024 C 38.149 66.982 38.125 66.94 38.101 66.895 C 36.313 63.774 34.826 60.478 33.653 57.088 C 33.592 56.913 33.528 56.74 33.462 56.567 C 33.093 55.605 33.093 55.605 33.299 55.138 C 33.314 55.108 33.328 55.078 33.342 55.048 C 33.398 54.925 33.443 54.801 33.487 54.673 C 34.183 52.713 35.078 50.825 36.023 48.971 C 36.099 48.823 36.174 48.674 36.247 48.524 C 36.452 48.114 36.672 47.711 36.904 47.316 C 37.044 47.072 37.18 46.829 37.313 46.583 C 37.622 46.011 37.962 45.459 38.307 44.909 C 38.408 44.743 38.507 44.578 38.605 44.41 C 39.039 43.681 39.519 42.979 39.995 42.276 C 40.019 42.239 40.044 42.202 40.07 42.164 C 40.606 41.372 41.16 40.593 41.73 39.823 C 41.767 39.776 41.767 39.776 41.803 39.727 C 42.165 39.237 42.537 38.757 42.916 38.282 C 42.958 38.23 42.999 38.179 43.04 38.126 C 43.118 38.031 43.193 37.935 43.27 37.839 C 43.347 37.744 43.422 37.648 43.498 37.553 C 43.727 37.263 43.961 36.981 44.203 36.702 C 44.305 36.585 44.403 36.468 44.502 36.348 C 44.708 36.098 44.923 35.853 45.137 35.608 C 45.203 35.533 45.268 35.458 45.333 35.383 C 45.574 35.104 45.82 34.83 46.073 34.56 C 46.158 34.47 46.243 34.377 46.325 34.284 C 46.504 34.08 46.691 33.882 46.876 33.685 C 46.939 33.617 47.003 33.547 47.068 33.479 C 47.296 33.235 47.526 32.995 47.767 32.764 C 47.849 32.679 47.927 32.596 48.003 32.508 C 48.17 32.32 48.347 32.143 48.526 31.966 C 48.578 31.917 48.578 31.917 48.629 31.866 C 48.7 31.796 48.77 31.728 48.84 31.659 C 48.948 31.553 49.055 31.447 49.162 31.341 C 49.231 31.274 49.299 31.206 49.369 31.139 C 49.4 31.107 49.432 31.076 49.465 31.044 C 49.637 30.874 49.814 30.713 49.999 30.556 C 50.113 30.457 50.22 30.35 50.327 30.242 C 50.489 30.08 50.657 29.927 50.832 29.777 C 50.977 29.651 51.117 29.521 51.259 29.388 C 51.573 29.096 51.897 28.816 52.228 28.54 C 52.403 28.392 52.577 28.243 52.748 28.09 C 52.965 27.897 53.19 27.715 53.417 27.534 C 53.447 27.511 53.474 27.488 53.503 27.461 C 53.815 27.202 54.156 27.026 54.517 26.843 C 54.581 26.811 54.644 26.778 54.709 26.745 C 54.837 26.677 54.967 26.611 55.096 26.547 C 55.264 26.461 55.43 26.376 55.596 26.29 C 55.872 26.149 56.148 26.008 56.425 25.869 C 56.465 25.849 56.504 25.829 56.544 25.809 C 57.173 25.493 57.81 25.198 58.452 24.909 C 58.513 24.882 58.575 24.855 58.637 24.826 C 61.266 23.644 63.954 22.6 66.703 21.719 C 66.852 21.672 67.001 21.624 67.149 21.575 C 71.128 20.28 75.242 19.318 93.009 17.538 Z" fill="#7933A5" style=""/>
  <path d="M 22.845 74.023 C 23.088 74.051 23.314 74.107 23.549 74.175 C 23.59 74.186 23.632 74.198 23.675 74.21 C 23.816 74.25 23.956 74.29 24.097 74.329 C 24.2 74.359 24.304 74.389 24.407 74.418 C 24.642 74.483 24.877 74.551 25.113 74.618 C 25.55 74.741 25.988 74.865 26.426 74.989 C 26.589 75.035 26.753 75.081 26.917 75.127 C 26.977 75.145 26.977 75.145 27.04 75.163 C 27.514 75.296 27.988 75.43 28.462 75.565 C 28.505 75.576 28.548 75.588 28.592 75.602 C 28.809 75.662 29.025 75.723 29.242 75.785 C 29.6 75.885 29.957 75.986 30.315 76.089 C 30.504 76.141 30.695 76.195 30.884 76.249 C 30.939 76.265 30.939 76.265 30.996 76.28 C 31.223 76.345 31.45 76.408 31.677 76.472 C 32.751 76.775 33.826 77.08 34.9 77.384 C 35.107 77.442 35.313 77.5 35.52 77.558 C 36.34 77.791 37.161 78.022 37.982 78.254 C 38.3 78.345 38.619 78.434 38.938 78.525 C 39.197 78.598 39.454 78.67 39.713 78.743 C 39.873 78.789 40.034 78.834 40.195 78.879 C 40.268 78.901 40.341 78.921 40.415 78.942 C 40.448 78.951 40.482 78.96 40.517 78.971 C 40.551 78.981 40.584 78.989 40.62 78.998 C 40.687 79.019 40.753 79.038 40.821 79.058 C 41.006 79.112 41.189 79.157 41.378 79.192 C 42.165 79.35 42.619 79.8 43.154 80.348 C 43.274 80.472 43.398 80.593 43.521 80.714 C 43.752 80.944 43.982 81.174 44.211 81.406 C 44.47 81.671 44.731 81.932 44.993 82.192 C 45.381 82.577 45.767 82.963 46.151 83.351 C 46.191 83.393 46.233 83.434 46.273 83.476 C 46.33 83.533 46.387 83.591 46.444 83.647 C 46.478 83.682 46.513 83.717 46.548 83.754 C 46.643 83.853 46.643 83.853 46.714 83.953 C 46.817 84.095 46.886 84.173 47.063 84.217 C 47.222 84.233 47.378 84.237 47.537 84.236 C 47.598 84.237 47.659 84.239 47.72 84.24 C 47.883 84.242 48.048 84.243 48.213 84.243 C 48.315 84.244 48.418 84.245 48.522 84.245 C 48.882 84.249 49.242 84.25 49.602 84.25 C 49.937 84.25 50.27 84.254 50.605 84.26 C 50.892 84.265 51.18 84.268 51.469 84.268 C 51.641 84.268 51.811 84.268 51.983 84.272 C 52.801 84.316 52.801 84.316 53.503 83.975 C 53.611 83.85 53.711 83.72 53.805 83.585 C 53.948 83.391 54.116 83.219 54.282 83.043 C 54.354 82.966 54.425 82.886 54.497 82.808 C 57.965 79.033 57.965 79.033 60.746 78.579 C 61.449 78.463 62.127 78.278 62.809 78.082 C 62.84 78.073 62.867 78.065 62.896 78.056 C 63.16 77.98 63.425 77.904 63.689 77.826 C 64.106 77.704 64.523 77.585 64.942 77.468 C 64.987 77.456 64.987 77.456 65.032 77.443 C 65.178 77.401 65.325 77.361 65.471 77.319 C 65.732 77.247 65.99 77.174 66.248 77.101 C 66.331 77.076 66.415 77.054 66.497 77.03 C 67.3 76.804 68.101 76.578 68.902 76.351 C 68.976 76.329 69.048 76.31 69.121 76.289 C 69.265 76.248 69.409 76.207 69.553 76.167 C 69.59 76.157 69.625 76.146 69.662 76.135 C 69.734 76.115 69.805 76.095 69.876 76.074 C 70.433 75.917 70.987 75.761 71.544 75.605 C 71.674 75.567 71.805 75.53 71.934 75.493 C 72.322 75.384 72.71 75.274 73.096 75.165 C 73.844 74.954 74.592 74.742 75.339 74.53 C 75.431 74.503 75.522 74.477 75.614 74.451 C 75.644 74.442 75.672 74.435 75.704 74.426 C 75.76 74.409 75.818 74.393 75.874 74.377 C 76.06 74.324 76.245 74.271 76.431 74.216 C 76.523 74.19 76.615 74.165 76.707 74.139 C 76.749 74.126 76.789 74.113 76.833 74.102 C 76.89 74.087 76.89 74.087 76.945 74.069 C 76.993 74.056 76.993 74.056 77.042 74.042 C 77.131 74.023 77.131 74.023 77.3 74.023 C 77.311 74.665 77.279 75.299 77.231 75.939 C 77.228 75.989 77.224 76.04 77.22 76.093 C 76.94 79.926 76.465 83.785 75.521 87.518 C 75.515 87.549 75.506 87.581 75.499 87.613 C 75.205 88.77 74.864 89.91 74.434 91.026 C 74.423 91.055 74.411 91.085 74.4 91.115 C 74.196 91.648 73.951 92.143 73.604 92.601 C 73.567 92.649 73.567 92.649 73.531 92.696 C 73.461 92.791 73.391 92.882 73.32 92.977 C 73.29 93.015 73.29 93.015 73.26 93.055 C 73.02 93.367 72.77 93.675 72.515 93.975 C 72.496 93.997 72.478 94.019 72.459 94.043 C 72.173 94.378 71.877 94.7 71.572 95.019 C 71.465 95.131 71.359 95.244 71.254 95.358 C 71.01 95.622 70.756 95.88 70.498 96.132 C 70.432 96.197 70.365 96.262 70.3 96.326 C 70.094 96.53 69.887 96.728 69.664 96.914 C 69.589 96.98 69.517 97.049 69.446 97.121 C 69.321 97.245 69.19 97.36 69.055 97.474 C 68.961 97.556 68.869 97.639 68.777 97.723 C 68.558 97.924 68.333 98.113 68.099 98.298 C 67.98 98.395 67.865 98.496 67.752 98.6 C 67.526 98.803 67.291 98.994 67.053 99.183 C 66.98 99.241 66.906 99.301 66.833 99.36 C 66.751 99.426 66.669 99.492 66.586 99.559 C 66.561 99.578 66.536 99.599 66.509 99.62 C 66.155 99.905 65.797 100.188 65.434 100.461 C 65.352 100.52 65.274 100.58 65.194 100.641 C 64.523 101.148 63.843 101.642 63.154 102.123 C 63.1 102.162 63.046 102.203 62.992 102.245 C 62.804 102.389 62.804 102.389 62.664 102.392 C 62.542 102.339 62.455 102.273 62.352 102.188 C 62.311 102.154 62.27 102.119 62.231 102.084 C 62.208 102.066 62.187 102.048 62.165 102.03 C 62.098 101.973 62.03 101.917 61.963 101.862 C 61.698 101.644 61.44 101.422 61.187 101.193 C 61.1 101.115 61.012 101.039 60.924 100.964 C 60.542 100.637 60.171 100.297 59.821 99.939 C 59.745 99.866 59.669 99.799 59.587 99.731 C 59.324 99.507 59.082 99.263 58.836 99.02 C 58.752 98.936 58.666 98.851 58.579 98.767 C 58.342 98.534 58.106 98.301 57.888 98.049 C 57.755 97.899 57.606 97.761 57.461 97.62 C 57.256 97.423 57.059 97.222 56.87 97.007 C 56.789 96.915 56.703 96.83 56.615 96.747 C 56.47 96.608 56.339 96.462 56.207 96.313 C 56.08 96.171 55.948 96.035 55.816 95.897 C 55.609 95.682 55.404 95.465 55.205 95.244 C 55.094 95.124 54.984 95.006 54.873 94.886 C 54.721 94.724 54.57 94.56 54.423 94.392 C 54.337 94.297 54.252 94.202 54.164 94.108 C 54.033 93.967 53.908 93.821 53.786 93.671 C 53.613 93.461 53.431 93.264 53.24 93.068 C 53.078 92.902 53.078 92.902 53.078 92.808 C 51.095 92.808 49.111 92.808 47.066 92.808 C 47.038 92.864 47.009 92.918 46.981 92.977 C 46.911 93.056 46.841 93.132 46.768 93.208 C 46.616 93.366 46.47 93.527 46.332 93.697 C 46.128 93.949 45.903 94.181 45.678 94.416 C 45.555 94.544 45.436 94.675 45.319 94.808 C 45.202 94.942 45.079 95.073 44.958 95.203 C 44.834 95.334 44.712 95.465 44.592 95.598 C 44.382 95.827 44.17 96.053 43.957 96.279 C 43.89 96.351 43.823 96.423 43.755 96.494 C 43.561 96.705 43.364 96.912 43.157 97.113 C 43.084 97.185 43.019 97.259 42.952 97.336 C 42.758 97.555 42.547 97.757 42.337 97.959 C 42.199 98.094 42.065 98.228 41.938 98.374 C 41.716 98.63 41.468 98.864 41.227 99.101 C 41.14 99.186 41.054 99.269 40.969 99.353 C 40.491 99.826 40.491 99.826 40.234 100.041 C 40.119 100.137 40.015 100.242 39.91 100.349 C 39.747 100.509 39.585 100.665 39.409 100.812 C 39.312 100.896 39.216 100.982 39.122 101.07 C 38.896 101.277 38.665 101.476 38.424 101.668 C 38.25 101.806 38.08 101.95 37.911 102.096 C 37.864 102.135 37.817 102.175 37.769 102.213 C 37.718 102.258 37.669 102.301 37.619 102.344 C 37.539 102.39 37.539 102.39 37.438 102.379 C 37.326 102.348 37.254 102.311 37.156 102.246 C 37.11 102.214 37.11 102.214 37.061 102.183 C 37.028 102.158 36.994 102.136 36.958 102.112 C 36.923 102.088 36.888 102.063 36.852 102.04 C 36.537 101.822 36.233 101.591 35.93 101.355 C 35.758 101.222 35.583 101.096 35.405 100.97 C 35.182 100.809 34.963 100.642 34.743 100.473 C 34.721 100.456 34.697 100.438 34.673 100.42 C 34.294 100.129 33.922 99.834 33.551 99.536 C 33.483 99.482 33.414 99.427 33.346 99.373 C 33.07 99.152 32.8 98.928 32.529 98.702 C 32.481 98.661 32.432 98.62 32.383 98.579 C 32.084 98.329 31.79 98.078 31.502 97.818 C 31.413 97.738 31.325 97.66 31.235 97.583 C 31.015 97.396 30.801 97.2 30.588 97.006 C 30.536 96.957 30.482 96.908 30.429 96.861 C 30.046 96.51 29.668 96.152 29.298 95.788 C 29.239 95.73 29.239 95.73 29.179 95.672 C 28.988 95.485 28.804 95.295 28.63 95.094 C 28.52 94.97 28.407 94.853 28.292 94.733 C 28.094 94.526 27.905 94.312 27.723 94.09 C 27.641 93.989 27.555 93.891 27.468 93.791 C 27.147 93.425 26.857 93.035 26.572 92.643 C 26.541 92.601 26.541 92.601 26.509 92.559 C 26.211 92.152 25.995 91.734 25.809 91.268 C 25.782 91.199 25.782 91.199 25.753 91.128 C 24.329 87.504 23.722 83.583 22.845 74.023 Z M 25.936 75.898 C 25.905 79.571 26.239 83.269 28.35 89.561 C 28.373 89.613 28.373 89.613 28.399 89.669 C 29.051 91.106 29.948 92.466 31.06 93.601 C 31.086 93.629 31.112 93.654 31.139 93.682 C 31.513 94.064 31.896 94.413 32.331 94.725 C 32.366 94.752 32.402 94.779 32.439 94.805 C 34.071 95.967 36.089 96.554 38.1 96.245 C 39.921 95.935 41.546 95.068 42.889 93.829 C 42.98 93.746 43.07 93.669 43.166 93.592 C 43.607 93.212 43.985 92.762 44.338 92.305 C 44.403 92.22 44.468 92.139 44.533 92.057 C 45.638 90.669 46.476 89.058 47.112 87.416 C 47.132 87.364 47.151 87.314 47.17 87.261 C 47.264 87.016 47.347 86.775 47.405 86.521 C 47.26 86.477 47.113 86.435 46.968 86.394 C 46.927 86.383 46.885 86.37 46.843 86.358 C 46.804 86.347 46.764 86.337 46.723 86.324 C 46.687 86.314 46.649 86.304 46.611 86.293 C 46.511 86.265 46.511 86.265 46.388 86.27 C 46.371 86.314 46.371 86.314 46.352 86.359 C 45.663 88.059 44.837 89.713 43.721 91.186 C 43.704 91.207 43.686 91.23 43.669 91.253 C 42.267 93.096 40.422 94.744 38.035 95.123 C 37.256 95.219 36.387 95.196 35.633 94.976 C 35.587 94.963 35.587 94.963 35.539 94.948 C 34.535 94.648 33.619 94.095 32.851 93.397 C 32.764 93.319 32.677 93.245 32.588 93.171 C 32.167 92.808 31.819 92.373 31.483 91.936 C 31.466 91.912 31.449 91.89 31.431 91.866 C 29.442 89.26 28.463 86.013 27.841 82.853 C 27.834 82.809 27.834 82.809 27.824 82.763 C 27.675 82 27.559 81.236 27.458 80.466 C 27.453 80.425 27.447 80.384 27.442 80.343 C 27.373 79.83 27.326 79.32 27.3 78.802 C 27.296 78.715 27.292 78.627 27.285 78.539 C 27.283 78.496 27.283 78.496 27.28 78.452 C 27.277 78.393 27.274 78.334 27.271 78.276 C 27.261 78.133 27.256 77.99 27.252 77.847 C 27.257 77.183 27.257 77.183 26.962 76.617 C 26.814 76.487 26.658 76.381 26.488 76.282 C 26.365 76.208 26.258 76.121 26.148 76.027 C 26.054 75.939 26.054 75.939 25.936 75.898 Z M 73.862 76.152 C 73.839 76.172 73.816 76.191 73.793 76.21 C 73.767 76.234 73.742 76.256 73.716 76.28 C 73.616 76.356 73.616 76.356 73.469 76.431 C 73.247 76.555 73.067 76.682 72.986 76.928 C 72.922 77.257 72.912 77.59 72.9 77.923 C 72.893 78.068 72.885 78.212 72.876 78.358 C 72.871 78.418 72.868 78.475 72.864 78.534 C 72.863 78.564 72.861 78.592 72.86 78.622 C 72.854 78.711 72.848 78.798 72.843 78.887 C 72.814 79.417 72.758 79.941 72.688 80.466 C 72.679 80.527 72.679 80.527 72.671 80.59 C 72.571 81.349 72.451 82.102 72.304 82.853 C 72.298 82.885 72.292 82.916 72.284 82.948 C 71.606 86.412 70.452 90.06 67.989 92.713 C 67.91 92.799 67.834 92.886 67.757 92.977 C 66.745 94.114 65.19 94.953 63.665 95.141 C 62.911 95.179 62.151 95.185 61.421 94.976 C 61.373 94.963 61.373 94.963 61.324 94.948 C 60.148 94.613 59.122 93.979 58.232 93.163 C 58.141 93.08 58.048 93.001 57.954 92.92 C 57.783 92.772 57.624 92.617 57.47 92.453 C 57.428 92.41 57.428 92.41 57.386 92.364 C 57.155 92.118 56.941 91.862 56.736 91.594 C 56.676 91.514 56.615 91.437 56.553 91.358 C 55.373 89.846 54.413 88.065 53.756 86.27 C 53.411 86.33 53.076 86.421 52.741 86.521 C 52.891 87.359 53.35 88.211 53.715 88.977 C 53.733 89.017 53.752 89.056 53.771 89.097 C 54.474 90.564 55.398 91.905 56.509 93.101 C 56.545 93.141 56.581 93.18 56.618 93.222 C 57.06 93.708 57.547 94.125 58.076 94.518 C 58.1 94.534 58.123 94.552 58.147 94.57 C 59.829 95.822 61.943 96.528 64.062 96.275 C 65.63 96.055 67.083 95.369 68.281 94.351 C 68.313 94.323 68.345 94.298 68.377 94.269 C 68.893 93.825 69.391 93.346 69.805 92.808 C 69.844 92.761 69.882 92.712 69.921 92.662 C 70.42 92.026 70.856 91.353 71.24 90.645 C 71.283 90.567 71.327 90.489 71.372 90.411 C 73.263 87.053 73.893 82.955 74.21 75.898 C 74.099 75.898 73.948 76.081 73.862 76.152 Z M 28.435 77.814 C 28.513 81.525 29.299 85.398 32.838 91.476 C 32.87 91.511 32.87 91.511 32.9 91.545 C 33.946 92.7 35.372 93.713 36.995 93.819 C 37.13 93.822 37.265 93.823 37.401 93.822 C 37.45 93.822 37.497 93.822 37.547 93.822 C 39.113 93.8 40.461 92.974 41.561 91.936 C 41.602 91.897 41.643 91.859 41.683 91.821 C 41.947 91.567 42.183 91.303 42.408 91.018 C 42.442 90.977 42.474 90.937 42.508 90.896 C 43.504 89.651 44.254 88.227 44.88 86.772 C 44.892 86.745 44.903 86.718 44.917 86.688 C 44.95 86.61 44.984 86.532 45.016 86.454 C 45.044 86.386 45.044 86.386 45.073 86.318 C 45.131 86.162 45.131 86.162 45.161 85.895 C 44.805 85.792 44.805 85.792 44.44 85.686 C 44.342 85.902 44.247 86.119 44.152 86.337 C 43.432 87.998 42.586 89.576 41.308 90.893 C 41.271 90.933 41.233 90.971 41.194 91.011 C 40.428 91.792 39.457 92.374 38.386 92.643 C 38.348 92.652 38.312 92.661 38.272 92.672 C 37.067 92.918 35.859 92.601 34.829 91.977 C 34.478 91.746 34.16 91.47 33.855 91.186 C 33.795 91.13 33.795 91.13 33.735 91.076 C 31.149 88.656 30.249 84.618 29.803 81.269 C 29.798 81.236 29.794 81.203 29.789 81.169 C 29.735 80.757 29.698 80.347 29.672 79.932 C 29.666 79.847 29.661 79.761 29.655 79.675 C 29.644 79.51 29.636 79.346 29.629 79.18 C 29.621 78.775 29.621 78.775 29.427 78.434 C 29.298 78.339 29.17 78.262 29.027 78.188 C 28.971 78.15 28.914 78.11 28.859 78.07 C 28.814 78.039 28.769 78.008 28.723 77.978 C 28.7 77.961 28.675 77.945 28.652 77.928 C 28.552 77.848 28.552 77.848 28.435 77.814 Z M 71.486 77.935 C 71.45 77.96 71.412 77.986 71.373 78.012 C 71.316 78.053 71.316 78.053 71.255 78.095 C 71.217 78.121 71.179 78.147 71.139 78.175 C 70.979 78.285 70.979 78.285 70.822 78.396 C 70.783 78.418 70.744 78.439 70.706 78.461 C 70.553 78.622 70.566 78.797 70.552 79.01 C 70.549 79.055 70.545 79.1 70.541 79.146 C 70.533 79.244 70.525 79.34 70.518 79.437 C 70.499 79.694 70.476 79.951 70.454 80.207 C 70.447 80.285 70.447 80.285 70.439 80.363 C 70.128 83.88 69.21 87.774 65.911 91.547 C 64.833 92.429 63.566 92.832 62.17 92.718 C 60.916 92.576 59.853 91.854 58.965 91.018 C 58.925 90.981 58.886 90.945 58.847 90.907 C 58.543 90.619 58.283 90.309 58.033 89.977 C 58.002 89.937 58.002 89.937 57.971 89.895 C 57.078 88.703 56.387 87.363 55.853 85.981 C 55.841 85.949 55.827 85.916 55.815 85.882 C 55.798 85.839 55.798 85.839 55.78 85.795 C 55.751 85.719 55.751 85.719 55.662 85.686 C 55.547 85.715 55.434 85.747 55.321 85.783 C 55.274 85.797 55.274 85.797 55.225 85.811 C 55.144 85.836 55.064 85.865 54.984 85.895 C 54.93 85.979 54.93 85.979 54.975 86.08 C 54.992 86.121 55.01 86.164 55.028 86.208 C 55.049 86.256 55.068 86.305 55.09 86.353 C 55.112 86.406 55.134 86.459 55.157 86.512 C 55.168 86.538 55.178 86.566 55.191 86.593 C 55.45 87.205 55.741 87.801 56.044 88.394 C 56.063 88.432 56.082 88.47 56.102 88.509 C 56.623 89.533 57.263 90.493 58.033 91.351 C 58.065 91.387 58.096 91.423 58.13 91.459 C 58.223 91.565 58.318 91.667 58.414 91.768 C 58.451 91.807 58.488 91.845 58.527 91.886 C 59.52 92.915 60.952 93.781 62.429 93.819 C 64.292 93.84 65.708 93.061 67.018 91.803 C 67.229 91.596 67.417 91.372 67.604 91.143 C 67.638 91.101 67.674 91.059 67.709 91.016 C 69.957 88.232 70.929 84.556 71.711 77.814 C 71.626 77.814 71.551 77.89 71.486 77.935 Z M 30.933 79.479 C 30.986 80.082 31.059 80.678 31.153 81.276 C 31.162 81.339 31.162 81.339 31.172 81.401 C 31.422 82.996 31.756 84.574 32.288 86.103 C 32.309 86.166 32.309 86.166 32.332 86.232 C 32.826 87.675 33.494 89.076 34.575 90.184 C 34.624 90.237 34.624 90.237 34.673 90.289 C 35.337 90.976 36.246 91.459 37.22 91.493 C 38.484 91.505 39.542 90.867 40.422 90.031 C 41.047 89.425 41.536 88.758 41.985 88.019 C 42.012 87.975 42.012 87.975 42.04 87.929 C 42.837 86.665 42.837 86.665 43.213 85.27 C 43.096 85.228 42.977 85.185 42.858 85.144 C 42.824 85.133 42.791 85.121 42.757 85.108 C 42.723 85.098 42.692 85.087 42.659 85.074 C 42.629 85.065 42.6 85.054 42.569 85.043 C 42.493 85.016 42.493 85.016 42.408 85.02 C 42.397 85.049 42.384 85.077 42.372 85.106 C 41.556 87.031 40.535 89.288 38.471 90.184 C 38.441 90.198 38.411 90.212 38.381 90.225 C 37.705 90.487 36.944 90.413 36.282 90.163 C 34.808 89.519 33.934 87.912 33.372 86.505 C 32.819 85.084 32.485 83.602 32.283 82.094 C 32.275 82.041 32.268 81.987 32.261 81.932 C 32.223 81.649 32.199 81.371 32.194 81.087 C 32.205 80.533 32.205 80.533 31.993 80.045 C 31.797 79.883 31.578 79.776 31.339 79.691 C 31.194 79.631 31.068 79.557 30.933 79.479 Z M 69.17 79.479 C 69.125 79.508 69.125 79.508 69.078 79.536 C 68.965 79.606 68.853 79.675 68.74 79.745 C 68.691 79.773 68.643 79.804 68.594 79.835 C 68.525 79.878 68.454 79.92 68.384 79.963 C 68.341 79.99 68.301 80.016 68.257 80.043 C 68.153 80.105 68.153 80.105 68.07 80.147 C 68.05 80.276 68.035 80.404 68.024 80.535 C 68.015 80.618 68.007 80.702 67.999 80.786 C 67.995 80.829 67.991 80.872 67.987 80.918 C 67.707 83.864 67.132 87.646 64.678 89.66 C 64.04 90.165 63.331 90.429 62.503 90.386 C 61.92 90.323 61.386 90.108 60.913 89.768 C 60.88 89.745 60.846 89.721 60.811 89.696 C 59.989 89.082 59.391 88.268 58.881 87.394 C 58.861 87.36 58.84 87.327 58.82 87.293 C 58.399 86.581 58.002 85.804 57.736 85.02 C 57.466 85.098 57.199 85.181 56.933 85.27 C 57.022 85.585 57.134 85.888 57.259 86.192 C 57.276 86.237 57.296 86.283 57.315 86.33 C 57.455 86.667 57.606 86.994 57.78 87.316 C 57.824 87.397 57.866 87.478 57.907 87.562 C 58.239 88.211 58.646 88.845 59.135 89.393 C 59.162 89.425 59.189 89.458 59.219 89.491 C 59.316 89.599 59.415 89.705 59.516 89.81 C 59.537 89.833 59.558 89.855 59.58 89.877 C 60.42 90.753 61.474 91.442 62.731 91.49 C 63.806 91.51 64.678 91.021 65.443 90.31 C 65.477 90.281 65.51 90.251 65.545 90.22 C 68.042 87.913 68.667 83.682 69.106 80.492 C 69.112 80.451 69.118 80.41 69.125 80.367 C 69.14 80.249 69.156 80.132 69.172 80.015 C 69.177 79.981 69.18 79.946 69.186 79.909 C 69.206 79.754 69.216 79.629 69.17 79.479 Z M 33.346 80.938 C 33.369 81.363 33.422 81.777 33.498 82.198 C 33.503 82.229 33.509 82.259 33.514 82.292 C 33.765 83.707 34.114 85.118 34.702 86.435 C 34.722 86.484 34.722 86.484 34.743 86.531 C 35.014 87.133 35.346 87.668 35.761 88.185 C 35.781 88.213 35.803 88.242 35.825 88.27 C 36.206 88.735 36.773 89.088 37.38 89.155 C 37.999 89.186 38.574 88.871 39.022 88.475 C 39.467 88.067 39.811 87.571 40.122 87.06 C 40.138 87.034 40.155 87.008 40.17 86.981 C 40.622 86.237 40.999 85.428 41.265 84.604 C 41.015 84.493 40.764 84.387 40.509 84.284 C 40.438 84.256 40.367 84.228 40.296 84.199 C 40.259 84.183 40.222 84.168 40.183 84.153 C 39.471 83.864 38.761 83.567 38.061 83.251 C 37.921 83.189 37.78 83.125 37.641 83.062 C 36.371 82.493 35.119 81.876 33.905 81.2 C 33.874 81.181 33.841 81.163 33.809 81.145 C 33.75 81.112 33.691 81.08 33.632 81.046 C 33.498 80.964 33.498 80.964 33.346 80.938 Z M 66.486 81.058 C 66.438 81.086 66.391 81.111 66.341 81.138 C 66.315 81.153 66.288 81.167 66.262 81.181 C 65.601 81.547 64.928 81.893 64.252 82.231 C 64.103 82.305 63.957 82.379 63.809 82.454 C 63.129 82.796 62.433 83.102 61.734 83.404 C 61.546 83.485 61.36 83.566 61.175 83.646 C 60.64 83.882 60.099 84.102 59.555 84.313 C 59.479 84.343 59.479 84.343 59.4 84.374 C 59.354 84.391 59.309 84.407 59.263 84.426 C 59.133 84.479 59.006 84.54 58.881 84.604 C 59.33 85.821 59.861 87.011 60.702 88.019 C 60.719 88.041 60.739 88.063 60.756 88.086 C 61.21 88.626 61.807 89.075 62.534 89.155 C 63.039 89.179 63.477 88.974 63.876 88.685 C 63.917 88.657 63.917 88.657 63.958 88.627 C 64.193 88.444 64.372 88.209 64.555 87.978 C 64.579 87.946 64.604 87.914 64.63 87.881 C 65.909 86.165 66.861 83.085 66.798 80.938 C 66.673 80.938 66.596 80.998 66.486 81.058 Z" fill="#7933A5" style=""/>
  <path d="M 88.496 37.15 C 88.597 37.15 88.697 37.15 88.799 37.15 C 89.009 37.15 89.219 37.15 89.428 37.15 C 89.64 37.15 89.851 37.149 90.061 37.148 C 91.344 37.146 92.62 37.159 93.899 37.24 C 93.953 37.244 94.005 37.248 94.058 37.251 C 94.363 37.269 94.667 37.293 94.971 37.316 C 95.016 37.32 95.061 37.324 95.105 37.327 C 97.315 37.503 99.584 37.73 101.733 38.282 C 101.68 38.44 101.635 38.449 101.49 38.526 C 101.426 38.561 101.426 38.561 101.361 38.596 C 101.314 38.621 101.268 38.645 101.219 38.67 C 101.123 38.724 101.025 38.775 100.926 38.829 C 100.902 38.842 100.877 38.856 100.852 38.87 C 99.276 39.73 97.78 40.753 96.314 41.781 C 96.283 41.803 96.252 41.824 96.221 41.845 C 95.766 42.164 95.319 42.493 94.874 42.828 C 94.685 42.971 94.495 43.112 94.304 43.253 C 93.849 43.587 93.406 43.934 92.966 44.287 C 92.782 44.434 92.599 44.579 92.412 44.72 C 92.183 44.896 91.961 45.079 91.741 45.266 C 91.594 45.392 91.446 45.514 91.296 45.634 C 91.042 45.838 90.793 46.047 90.546 46.257 C 90.47 46.322 90.393 46.386 90.317 46.45 C 90.045 46.677 89.778 46.909 89.516 47.145 C 89.396 47.251 89.277 47.354 89.157 47.456 C 88.987 47.604 88.818 47.754 88.648 47.904 C 88.578 47.966 88.507 48.03 88.437 48.092 C 88.402 48.123 88.367 48.154 88.33 48.187 C 88.263 48.247 88.194 48.306 88.126 48.366 C 87.831 48.626 87.541 48.892 87.252 49.159 C 87.165 49.24 87.077 49.32 86.99 49.4 C 86.71 49.656 86.433 49.913 86.167 50.181 C 86.089 50.257 86.009 50.327 85.925 50.397 C 85.66 50.625 85.415 50.872 85.167 51.116 C 85.113 51.169 85.06 51.222 85.005 51.275 C 84.892 51.386 84.781 51.495 84.669 51.606 C 84.525 51.748 84.382 51.889 84.238 52.029 C 84.127 52.139 84.016 52.248 83.905 52.358 C 83.852 52.409 83.8 52.461 83.746 52.512 C 83.38 52.874 83.38 52.874 83.033 53.254 C 82.917 53.387 82.786 53.507 82.658 53.63 C 82.514 53.769 82.381 53.916 82.248 54.066 C 82.115 54.215 81.974 54.358 81.837 54.502 C 81.614 54.733 81.395 54.965 81.183 55.208 C 81.093 55.295 81.022 55.32 80.896 55.321 C 80.845 55.318 80.845 55.318 80.793 55.315 C 80.735 55.313 80.735 55.313 80.676 55.309 C 80.634 55.306 80.593 55.304 80.55 55.301 C 80.045 55.277 79.542 55.269 79.037 55.269 C 78.993 55.269 78.951 55.27 78.906 55.27 C 74.379 55.277 70.417 56.732 66.037 59.944 C 65.997 59.975 65.957 60.006 65.917 60.039 C 65.638 60.26 65.364 60.488 65.092 60.717 C 65.02 60.775 64.949 60.836 64.877 60.894 C 64.52 61.191 64.177 61.503 63.835 61.821 C 63.751 61.901 63.664 61.98 63.577 62.059 C 62.888 62.686 62.888 62.686 62.253 63.364 C 62.17 63.458 62.081 63.544 61.992 63.629 C 61.85 63.769 61.716 63.911 61.585 64.061 C 61.492 64.166 61.395 64.268 61.3 64.372 C 61.127 64.557 60.966 64.747 60.807 64.942 C 60.683 65.088 60.557 65.229 60.432 65.371 C 60.193 65.64 59.968 65.915 59.747 66.196 C 59.679 66.281 59.613 66.366 59.546 66.449 C 59.03 67.095 58.538 67.755 58.062 68.425 C 57.983 68.537 57.903 68.648 57.824 68.758 C 57.538 69.159 57.258 69.559 56.998 69.977 C 56.893 70.144 56.785 70.31 56.678 70.475 C 56.354 70.969 56.046 71.473 55.747 71.982 C 55.725 72.019 55.703 72.055 55.681 72.092 C 54.716 73.733 53.814 75.422 53.03 77.155 C 52.994 77.23 52.994 77.23 52.953 77.273 C 52.119 77.416 51.253 77.363 50.411 77.355 C 50.551 73.648 51.32 69.978 52.783 65.358 C 52.794 65.324 52.805 65.29 52.817 65.254 C 53.515 63.173 54.338 61.139 55.282 59.152 C 55.302 59.108 55.322 59.064 55.344 59.02 C 55.489 58.714 55.638 58.412 55.789 58.11 C 55.814 58.063 55.814 58.063 55.837 58.015 C 56.262 57.164 56.688 56.318 57.174 55.499 C 57.261 55.35 57.34 55.198 57.421 55.046 C 57.649 54.613 57.904 54.196 58.16 53.778 C 58.197 53.719 58.197 53.719 58.233 53.659 C 59.087 52.263 59.992 50.894 60.955 49.572 C 60.977 49.54 61 49.509 61.023 49.477 C 61.183 49.258 61.345 49.039 61.504 48.821 C 61.53 48.789 61.553 48.756 61.579 48.724 C 61.918 48.264 62.267 47.813 62.623 47.365 C 62.687 47.287 62.749 47.208 62.81 47.129 C 63.096 46.769 63.388 46.418 63.683 46.068 C 63.772 45.963 63.858 45.857 63.946 45.751 C 64.151 45.506 64.362 45.264 64.573 45.023 C 64.638 44.948 64.706 44.873 64.769 44.798 C 65.001 44.529 65.235 44.266 65.476 44.007 C 65.557 43.919 65.638 43.832 65.716 43.742 C 65.897 43.538 66.084 43.339 66.271 43.141 C 66.334 43.071 66.399 43.002 66.464 42.931 C 66.671 42.709 66.88 42.49 67.099 42.279 C 67.173 42.205 67.243 42.127 67.312 42.047 C 67.587 41.737 67.88 41.444 68.171 41.15 C 68.273 41.047 68.375 40.943 68.474 40.84 C 68.935 40.361 69.323 39.972 69.996 39.845 C 70.15 39.814 70.299 39.771 70.45 39.73 C 70.659 39.671 70.868 39.618 71.079 39.563 C 71.124 39.552 71.169 39.54 71.214 39.528 C 75.341 38.458 79.552 37.733 88.496 37.15 Z" fill="#7933A5" style=""/>
  <path d="M 80.4 56.639 C 80.475 56.639 80.55 56.639 80.627 56.639 C 81.738 56.641 82.842 56.662 83.949 56.778 C 84.031 56.786 84.113 56.794 84.196 56.802 C 87.504 57.142 90.757 57.841 93.913 58.874 C 93.943 58.884 93.975 58.892 94.006 58.904 C 94.441 59.045 94.87 59.199 95.296 59.36 C 95.296 59.387 95.296 59.415 95.296 59.444 C 95.253 59.455 95.213 59.467 95.169 59.479 C 91.747 60.444 88.393 61.602 85.176 63.108 C 85.104 63.142 85.104 63.142 85.029 63.177 C 83.966 63.673 82.921 64.194 81.909 64.789 C 81.794 64.856 81.679 64.921 81.563 64.986 C 80.822 65.405 80.097 65.865 79.407 66.363 C 79.29 66.441 79.29 66.441 79.206 66.441 C 79.195 66.476 79.186 66.51 79.176 66.545 C 79.122 66.688 79.057 66.813 78.982 66.947 C 78.49 67.82 77.976 68.96 77.929 69.977 C 77.903 70.311 77.903 70.311 77.766 70.432 C 77.64 70.496 77.513 70.542 77.38 70.589 C 77.3 70.619 77.221 70.649 77.141 70.681 C 77.051 70.715 76.961 70.747 76.87 70.781 C 76.641 70.866 76.415 70.954 76.19 71.043 C 74.683 71.639 73.168 72.204 71.639 72.739 C 71.541 72.773 71.443 72.808 71.346 72.842 C 68.627 73.797 65.867 74.644 63.073 75.356 C 63.021 75.368 62.971 75.382 62.919 75.395 C 60.403 76.035 57.871 76.604 55.3 76.984 C 55.253 76.99 55.253 76.99 55.206 76.996 C 55.121 77.01 55.035 77.022 54.95 77.033 C 54.902 77.04 54.855 77.048 54.805 77.055 C 54.688 77.064 54.688 77.064 54.561 77.022 C 55.048 76 55.568 74.998 56.142 74.02 C 56.217 73.889 56.293 73.76 56.368 73.628 C 56.68 73.094 56.997 72.566 57.331 72.046 C 57.398 71.942 57.463 71.837 57.531 71.732 C 58.135 70.781 58.773 69.845 59.45 68.944 C 59.523 68.848 59.595 68.753 59.666 68.656 C 59.949 68.275 60.236 67.898 60.532 67.525 C 60.551 67.501 60.569 67.477 60.588 67.452 C 60.976 66.964 61.375 66.484 61.782 66.013 C 61.824 65.964 61.865 65.916 61.907 65.869 C 62.169 65.566 62.434 65.268 62.709 64.977 C 62.814 64.864 62.917 64.752 63.019 64.637 C 63.148 64.495 63.282 64.359 63.421 64.225 C 63.493 64.152 63.561 64.077 63.627 64 C 63.807 63.798 63.998 63.609 64.192 63.419 C 64.226 63.386 64.26 63.352 64.295 63.317 C 64.479 63.137 64.665 62.963 64.861 62.798 C 64.94 62.731 65.012 62.661 65.085 62.589 C 65.239 62.434 65.404 62.292 65.572 62.151 C 65.616 62.113 65.661 62.076 65.704 62.037 C 65.832 61.93 65.96 61.821 66.088 61.715 C 66.159 61.656 66.229 61.596 66.299 61.536 C 66.666 61.225 67.047 60.936 67.433 60.652 C 67.482 60.617 67.482 60.617 67.531 60.581 C 68.638 59.759 69.805 59.036 71.034 58.403 C 71.089 58.372 71.089 58.372 71.147 58.342 C 72.27 57.758 73.382 57.338 74.634 57.126 C 74.768 57.102 74.901 57.077 75.035 57.053 C 75.597 56.954 76.162 56.877 76.73 56.812 C 76.783 56.805 76.838 56.798 76.896 56.792 C 78.063 56.661 79.227 56.637 80.4 56.639 Z" fill="#7933A5" style=""/>
</svg>