<?xml version="1.0" encoding="utf-8"?>
<svg 
  viewBox="0 0 106.00782394174519 104.68749999999999"
   class="css-1j8o68f"
   version="1.1"
   id="svg23"
   sodipodi:docname="logo.svg"
   xmlns:inkscape="http://www.inkscape.org/namespaces/inkscape"
   xmlns:sodipodi="http://sodipodi.sourceforge.net/DTD/sodipodi-0.dtd"
   xmlns="http://www.w3.org/2000/svg"
   xmlns:svg="http://www.w3.org/2000/svg">
  <path d="M 69.138 3.46 C 69.106 3.493 69.106 3.493 69.072 3.526 C 68.866 3.732 68.659 3.937 68.453 4.143 C 68.347 4.249 68.241 4.355 68.135 4.461 C 68.032 4.563 67.93 4.665 67.827 4.768 C 67.788 4.807 67.749 4.845 67.71 4.884 C 67.51 5.083 67.313 5.283 67.131 5.498 C 67.067 5.572 67 5.639 66.932 5.706 C 66.812 5.824 66.703 5.946 66.594 6.073 C 66.516 6.161 66.437 6.248 66.357 6.334 C 66.166 6.539 65.986 6.749 65.811 6.968 C 65.711 7.088 65.607 7.202 65.5 7.317 C 65.331 7.499 65.171 7.686 65.015 7.88 C 64.915 8.003 64.813 8.123 64.71 8.244 C 64.541 8.441 64.38 8.642 64.221 8.848 C 64.075 9.034 63.925 9.217 63.773 9.399 C 63.573 9.64 63.381 9.885 63.196 10.136 C 63.044 10.341 62.888 10.542 62.732 10.742 C 62.517 11.015 62.312 11.293 62.113 11.577 C 62.012 11.72 61.909 11.861 61.807 12.001 C 61.637 12.237 61.468 12.473 61.3 12.71 C 61.283 12.734 61.265 12.758 61.248 12.783 C 60.888 13.295 60.538 13.812 60.191 14.333 C 60.172 14.362 60.153 14.39 60.133 14.419 C 59.857 14.834 59.584 15.248 59.316 15.668 C 59.29 15.708 59.29 15.708 59.264 15.75 C 58.458 17.009 57.698 18.299 56.97 19.604 C 56.945 19.649 56.92 19.694 56.894 19.741 C 56.557 20.346 56.227 20.955 55.909 21.571 C 55.846 21.693 55.781 21.814 55.717 21.936 C 55.276 22.763 54.857 23.604 54.47 24.458 C 54.458 24.485 54.445 24.513 54.433 24.541 C 54.307 24.818 54.184 25.096 54.071 25.379 C 53.864 25.888 53.678 26.236 53.232 26.563 C 53.154 26.627 53.076 26.691 52.999 26.755 C 52.945 26.797 52.945 26.797 52.891 26.841 C 52.781 26.933 52.682 27.031 52.583 27.133 C 52.49 27.227 52.389 27.312 52.289 27.399 C 52.118 27.548 51.952 27.703 51.785 27.857 C 51.723 27.914 51.661 27.971 51.6 28.027 C 51.468 28.149 51.336 28.271 51.204 28.393 C 51.178 28.417 51.152 28.441 51.126 28.466 C 50.781 28.786 50.442 29.111 50.111 29.447 C 49.993 29.568 49.872 29.684 49.743 29.794 C 49.577 29.939 49.421 30.091 49.266 30.247 C 49.238 30.274 49.209 30.302 49.181 30.331 C 49.122 30.39 49.063 30.449 49.005 30.507 C 48.916 30.597 48.826 30.686 48.737 30.775 C 48.68 30.833 48.623 30.89 48.565 30.947 C 48.539 30.973 48.512 31 48.485 31.027 C 48.332 31.181 48.187 31.339 48.045 31.503 C 47.973 31.586 47.897 31.664 47.818 31.741 C 47.789 31.769 47.762 31.798 47.732 31.827 C 47.674 31.883 47.616 31.94 47.559 31.997 C 47.395 32.159 47.24 32.324 47.09 32.498 C 46.988 32.614 46.878 32.72 46.767 32.828 C 46.662 32.935 46.565 33.047 46.467 33.159 C 46.322 33.324 46.17 33.482 46.02 33.642 C 45.87 33.801 45.724 33.962 45.581 34.127 C 45.503 34.216 45.424 34.303 45.344 34.389 C 45.22 34.527 45.102 34.666 44.986 34.81 C 44.857 34.969 44.723 35.122 44.583 35.272 C 44.416 35.452 44.258 35.639 44.104 35.83 C 43.99 35.969 43.872 36.104 43.753 36.239 C 43.566 36.453 43.387 36.673 43.213 36.897 C 43.091 37.052 42.967 37.204 42.838 37.352 C 42.648 37.574 42.47 37.804 42.293 38.038 C 42.149 38.229 42 38.418 41.849 38.605 C 41.648 38.854 41.453 39.109 41.263 39.368 C 41.22 39.425 41.178 39.483 41.135 39.541 C 40.454 40.462 39.786 41.392 39.155 42.35 C 39.132 42.386 39.109 42.42 39.085 42.457 C 38.541 43.283 38.022 44.12 37.525 44.975 C 37.496 45.025 37.496 45.025 37.466 45.077 C 35.776 47.978 34.382 51.098 33.688 54.394 C 33.677 54.442 33.667 54.49 33.657 54.539 C 33.648 54.584 33.638 54.628 33.629 54.675 C 33.621 54.714 33.613 54.753 33.605 54.793 C 33.563 55.097 33.602 55.322 33.698 55.609 C 33.715 55.663 33.715 55.663 33.733 55.718 C 33.771 55.836 33.81 55.952 33.849 56.069 C 33.862 56.11 33.876 56.15 33.89 56.192 C 34.593 58.319 35.463 60.381 36.451 62.392 C 36.471 62.434 36.471 62.434 36.493 62.477 C 36.865 63.235 37.242 63.986 37.665 64.715 C 37.746 64.856 37.822 64.999 37.899 65.141 C 38.158 65.623 38.435 66.093 38.72 66.56 C 38.796 66.685 38.871 66.809 38.946 66.933 C 39.333 67.572 39.744 68.193 40.16 68.813 C 40.279 68.989 40.398 69.167 40.515 69.345 C 40.757 69.71 41.008 70.068 41.263 70.425 C 41.283 70.453 41.304 70.481 41.324 70.51 C 41.677 71.006 42.045 71.493 42.416 71.975 C 42.454 72.025 42.492 72.074 42.529 72.124 C 42.624 72.247 42.718 72.37 42.814 72.492 C 42.831 72.515 42.848 72.536 42.866 72.56 C 43.099 72.86 43.338 73.154 43.584 73.444 C 43.68 73.556 43.772 73.669 43.865 73.783 C 44.18 74.17 44.508 74.547 44.842 74.918 C 44.829 74.945 44.815 74.971 44.802 74.998 C 40.814 74.174 36.893 73.07 28.578 70.305 C 28.542 70.292 28.506 70.279 28.469 70.265 C 27.992 70.089 27.517 69.911 27.042 69.73 C 26.788 69.633 26.532 69.54 26.275 69.45 C 26.101 69.389 25.928 69.326 25.755 69.262 C 25.673 69.232 25.592 69.204 25.509 69.176 C 24.893 68.968 24.588 68.697 24.261 68.136 C 24.185 68.008 24.102 67.886 24.018 67.764 C 23.346 66.787 22.761 65.748 22.202 64.703 C 22.135 64.578 22.067 64.453 21.999 64.329 C 21.362 63.163 20.79 61.962 20.249 60.749 C 20.174 60.583 20.099 60.417 20.024 60.253 C 18.848 57.678 17.846 55.017 16.909 52.348 C 16.87 52.238 16.83 52.127 16.791 52.016 C 16.743 51.885 16.697 51.754 16.65 51.623 C 16.631 51.571 16.631 51.571 16.612 51.517 C 16.453 51.055 16.534 50.582 16.611 50.11 C 16.618 50.068 16.618 50.068 16.624 50.027 C 16.723 49.41 16.857 48.803 17.006 48.196 C 17.017 48.15 17.028 48.104 17.039 48.057 C 17.515 46.097 18.227 44.18 19.074 42.35 C 19.096 42.302 19.118 42.253 19.14 42.205 C 19.571 41.267 20.021 40.343 20.522 39.441 C 20.587 39.325 20.651 39.208 20.715 39.091 C 21.746 37.223 22.926 35.43 24.203 33.721 C 24.224 33.693 24.246 33.664 24.268 33.635 C 24.761 32.973 25.262 32.316 25.787 31.679 C 25.845 31.609 25.902 31.539 25.959 31.469 C 26.146 31.239 26.338 31.012 26.532 30.786 C 26.653 30.646 26.771 30.504 26.888 30.358 C 27.06 30.145 27.246 29.945 27.434 29.745 C 27.543 29.627 27.649 29.506 27.755 29.384 C 28.005 29.097 28.264 28.817 28.523 28.538 C 28.606 28.448 28.689 28.358 28.772 28.269 C 29.254 27.743 29.762 27.242 30.267 26.738 C 30.399 26.607 30.531 26.474 30.663 26.342 C 30.766 26.239 30.868 26.136 30.972 26.033 C 31.02 25.985 31.069 25.936 31.118 25.887 C 31.575 25.429 31.575 25.429 31.813 25.228 C 31.885 25.166 31.951 25.101 32.018 25.032 C 32.107 24.941 32.199 24.855 32.296 24.772 C 32.459 24.631 32.616 24.484 32.773 24.337 C 32.975 24.147 33.178 23.959 33.39 23.78 C 33.48 23.702 33.572 23.624 33.663 23.547 C 33.687 23.526 33.711 23.505 33.737 23.484 C 33.877 23.363 34.015 23.241 34.152 23.116 C 34.318 22.967 34.49 22.825 34.663 22.684 C 34.795 22.575 34.923 22.465 35.052 22.354 C 35.259 22.174 35.472 22.002 35.688 21.834 C 35.847 21.711 36.001 21.583 36.153 21.454 C 36.394 21.248 36.642 21.051 36.892 20.857 C 36.973 20.794 37.053 20.731 37.134 20.668 C 37.808 20.141 38.491 19.622 39.182 19.116 C 39.275 19.047 39.368 18.978 39.462 18.908 C 39.879 18.6 40.302 18.298 40.729 18.002 C 40.819 17.939 40.909 17.875 40.998 17.811 C 41.623 17.368 42.263 16.947 42.902 16.523 C 43.076 16.407 43.249 16.292 43.423 16.176 C 44.986 15.127 46.595 14.147 48.222 13.203 C 48.289 13.163 48.289 13.163 48.357 13.123 C 48.905 12.805 49.456 12.492 50.01 12.184 C 50.163 12.098 50.315 12.012 50.468 11.924 C 51.368 11.409 52.289 10.931 53.211 10.456 C 53.391 10.364 53.571 10.27 53.751 10.175 C 54.264 9.901 54.783 9.64 55.304 9.38 C 55.425 9.32 55.545 9.26 55.666 9.199 C 56.27 8.896 56.877 8.6 57.487 8.311 C 57.546 8.283 57.605 8.255 57.664 8.227 C 58.462 7.848 59.263 7.478 60.069 7.115 C 60.123 7.091 60.179 7.066 60.234 7.041 C 61.328 6.549 62.428 6.075 63.531 5.607 C 63.563 5.594 63.596 5.579 63.629 5.566 C 64.766 5.083 65.914 4.626 67.061 4.171 C 67.287 4.081 67.513 3.991 67.738 3.9 C 67.891 3.839 68.045 3.778 68.198 3.718 C 68.267 3.69 68.337 3.662 68.407 3.634 C 68.501 3.596 68.596 3.558 68.691 3.522 C 68.732 3.505 68.732 3.505 68.773 3.488 C 68.915 3.433 68.995 3.415 69.138 3.46 Z" fill="#E4007F" style=""/>
  <path d="M 91.01 18.253 C 91.01 18.279 91.01 18.304 91.01 18.332 C 90.985 18.342 90.96 18.352 90.936 18.362 C 89.872 18.796 88.839 19.286 87.847 19.865 C 87.726 19.936 87.602 20.004 87.478 20.071 C 86.579 20.563 85.729 21.129 84.88 21.702 C 84.772 21.775 84.663 21.848 84.554 21.921 C 83.827 22.411 83.129 22.937 82.433 23.471 C 82.351 23.533 82.27 23.595 82.189 23.657 C 81.917 23.865 81.65 24.079 81.386 24.297 C 81.316 24.355 81.244 24.413 81.172 24.471 C 80.988 24.622 80.806 24.775 80.624 24.93 C 80.489 25.044 80.351 25.157 80.213 25.268 C 79.999 25.442 79.798 25.629 79.597 25.817 C 79.505 25.903 79.412 25.987 79.316 26.069 C 79.121 26.237 78.933 26.413 78.743 26.586 C 78.686 26.64 78.627 26.693 78.569 26.746 C 77.976 27.287 77.398 27.841 76.831 28.41 C 76.728 28.513 76.624 28.616 76.521 28.719 C 76.454 28.786 76.388 28.853 76.321 28.92 C 76.275 28.965 76.275 28.965 76.229 29.011 C 76.065 29.175 75.909 29.343 75.758 29.519 C 75.683 29.605 75.603 29.685 75.521 29.765 C 75.39 29.894 75.268 30.026 75.149 30.165 C 75.032 30.297 74.911 30.424 74.79 30.552 C 74.597 30.758 74.415 30.966 74.239 31.186 C 74.134 31.314 74.023 31.434 73.91 31.553 C 73.735 31.741 73.57 31.933 73.41 32.133 C 73.294 32.274 73.174 32.412 73.053 32.551 C 72.885 32.743 72.721 32.937 72.564 33.137 C 72.498 33.221 72.431 33.303 72.363 33.386 C 72.115 33.689 71.872 33.995 71.636 34.306 C 71.497 34.49 71.354 34.67 71.209 34.85 C 70.956 35.163 70.719 35.486 70.482 35.811 C 70.411 35.908 70.34 36.004 70.269 36.101 C 70.045 36.403 69.823 36.706 69.606 37.014 C 69.586 37.042 69.567 37.07 69.547 37.098 C 69.456 37.228 69.366 37.357 69.278 37.488 C 69.009 37.882 68.695 38.218 68.33 38.526 C 68.07 38.753 67.828 39.002 67.584 39.247 C 67.529 39.301 67.475 39.356 67.422 39.41 C 67.308 39.523 67.195 39.635 67.082 39.749 C 66.938 39.893 66.794 40.037 66.65 40.181 C 66.538 40.293 66.426 40.405 66.315 40.516 C 66.262 40.57 66.208 40.622 66.155 40.676 C 65.795 41.033 65.795 41.033 65.455 41.413 C 65.394 41.483 65.329 41.549 65.261 41.615 C 65.144 41.731 65.035 41.852 64.927 41.978 C 64.822 42.097 64.714 42.214 64.606 42.33 C 64.33 42.627 64.066 42.933 63.803 43.24 C 63.653 43.415 63.501 43.59 63.351 43.765 C 63.036 44.126 62.724 44.489 62.427 44.865 C 62.359 44.95 62.29 45.035 62.221 45.119 C 61.982 45.408 61.751 45.701 61.527 46.003 C 61.377 46.205 61.223 46.403 61.068 46.601 C 60.816 46.924 60.573 47.255 60.335 47.59 C 60.25 47.708 60.165 47.826 60.079 47.943 C 59.971 48.093 59.862 48.244 59.754 48.394 C 59.733 48.423 59.713 48.451 59.692 48.481 C 59.218 49.141 58.776 49.823 58.333 50.504 C 58.288 50.573 58.244 50.642 58.199 50.71 C 57.798 51.326 57.425 51.958 57.052 52.59 C 56.986 52.702 56.921 52.813 56.855 52.923 C 56.379 53.722 55.939 54.539 55.516 55.367 C 55.42 55.554 55.323 55.74 55.223 55.926 C 54.708 56.891 54.265 57.891 53.829 58.893 C 53.816 58.923 53.802 58.953 53.789 58.983 C 52.342 62.304 51.236 65.776 49.836 74.564 C 49.824 74.817 49.81 75.065 49.773 75.316 C 49.506 75.356 49.246 75.361 48.976 75.361 C 48.931 75.361 48.886 75.361 48.839 75.361 C 48.743 75.361 48.648 75.361 48.552 75.361 C 48.407 75.361 48.261 75.361 48.115 75.361 C 48.022 75.361 47.929 75.361 47.836 75.361 C 47.771 75.361 47.771 75.361 47.706 75.361 C 47.586 75.361 47.466 75.358 47.347 75.356 C 47.312 75.356 47.277 75.357 47.24 75.357 C 46.991 75.351 46.869 75.276 46.693 75.101 C 46.651 75.056 46.651 75.056 46.607 75.01 C 46.577 74.979 46.546 74.948 46.515 74.916 C 46.417 74.817 46.322 74.718 46.226 74.617 C 46.161 74.551 46.097 74.485 46.032 74.419 C 45.782 74.164 45.534 73.907 45.3 73.636 C 45.205 73.526 45.105 73.421 45.006 73.315 C 44.829 73.124 44.66 72.929 44.497 72.726 C 44.391 72.596 44.281 72.468 44.17 72.341 C 43.956 72.091 43.751 71.835 43.549 71.575 C 43.486 71.493 43.421 71.411 43.357 71.329 C 43.054 70.944 42.763 70.552 42.478 70.154 C 42.419 70.071 42.359 69.989 42.299 69.907 C 41.861 69.316 41.463 68.696 41.064 68.079 C 41.04 68.04 41.015 68.003 40.99 67.964 C 40.47 67.157 39.983 66.33 39.514 65.494 C 39.49 65.453 39.467 65.412 39.444 65.37 C 37.766 62.391 36.369 59.244 35.268 56.007 C 35.21 55.842 35.151 55.676 35.089 55.512 C 34.741 54.592 34.741 54.592 34.936 54.147 C 34.95 54.118 34.962 54.09 34.977 54.061 C 35.028 53.944 35.07 53.825 35.112 53.703 C 35.766 51.832 36.606 50.029 37.493 48.26 C 37.565 48.117 37.635 47.976 37.704 47.833 C 37.897 47.44 38.103 47.058 38.319 46.679 C 38.452 46.447 38.58 46.214 38.705 45.979 C 38.996 45.434 39.314 44.907 39.638 44.381 C 39.734 44.224 39.827 44.066 39.919 43.906 C 40.326 43.209 40.776 42.539 41.223 41.868 C 41.247 41.833 41.27 41.798 41.294 41.762 C 41.797 41.005 42.318 40.261 42.854 39.527 C 42.887 39.481 42.887 39.481 42.921 39.434 C 43.261 38.968 43.611 38.509 43.967 38.056 C 44.006 38.006 44.044 37.957 44.084 37.907 C 44.155 37.815 44.227 37.724 44.299 37.633 C 44.371 37.542 44.442 37.45 44.514 37.359 C 44.728 37.083 44.949 36.813 45.175 36.547 C 45.27 36.437 45.363 36.323 45.456 36.209 C 45.65 35.97 45.852 35.737 46.053 35.503 C 46.114 35.432 46.175 35.361 46.235 35.289 C 46.462 35.022 46.694 34.76 46.931 34.503 C 47.012 34.416 47.09 34.328 47.168 34.238 C 47.337 34.044 47.511 33.855 47.685 33.666 C 47.745 33.601 47.805 33.536 47.865 33.47 C 48.079 33.237 48.295 33.008 48.522 32.787 C 48.6 32.708 48.672 32.628 48.744 32.543 C 48.901 32.363 49.067 32.194 49.236 32.026 C 49.284 31.978 49.284 31.978 49.331 31.93 C 49.397 31.864 49.464 31.798 49.53 31.732 C 49.631 31.631 49.732 31.531 49.832 31.43 C 49.896 31.365 49.962 31.3 50.026 31.236 C 50.056 31.206 50.085 31.176 50.116 31.146 C 50.279 30.984 50.444 30.83 50.618 30.68 C 50.726 30.586 50.826 30.484 50.926 30.381 C 51.078 30.225 51.235 30.079 51.4 29.936 C 51.537 29.817 51.668 29.691 51.801 29.566 C 52.096 29.286 52.401 29.019 52.71 28.756 C 52.876 28.615 53.04 28.472 53.2 28.325 C 53.403 28.141 53.615 27.968 53.829 27.796 C 53.855 27.773 53.882 27.75 53.909 27.726 C 54.202 27.478 54.521 27.309 54.86 27.135 C 54.92 27.104 54.981 27.072 55.041 27.04 C 55.162 26.977 55.284 26.915 55.405 26.852 C 55.563 26.771 55.718 26.689 55.875 26.607 C 56.134 26.472 56.393 26.338 56.653 26.206 C 56.689 26.186 56.727 26.168 56.765 26.147 C 57.355 25.846 57.954 25.564 58.557 25.289 C 58.614 25.263 58.672 25.237 58.73 25.211 C 61.199 24.081 63.723 23.085 66.305 22.244 C 66.445 22.199 66.584 22.153 66.723 22.106 C 70.46 20.87 74.323 19.952 91.01 18.253 Z" fill="#E4007F" style=""/>
  <path d="M 86.77 36.975 C 86.865 36.975 86.96 36.975 87.054 36.975 C 87.251 36.975 87.449 36.975 87.646 36.975 C 87.844 36.975 88.042 36.975 88.241 36.974 C 89.445 36.971 90.643 36.984 91.845 37.061 C 91.894 37.064 91.944 37.067 91.994 37.07 C 92.28 37.089 92.566 37.11 92.852 37.133 C 92.893 37.137 92.935 37.14 92.978 37.144 C 95.052 37.311 97.183 37.528 99.201 38.056 C 99.151 38.206 99.109 38.215 98.973 38.289 C 98.913 38.322 98.913 38.322 98.851 38.355 C 98.808 38.379 98.764 38.402 98.719 38.426 C 98.627 38.476 98.536 38.527 98.444 38.577 C 98.421 38.59 98.397 38.603 98.373 38.616 C 96.893 39.437 95.489 40.414 94.111 41.396 C 94.083 41.416 94.054 41.437 94.025 41.457 C 93.597 41.762 93.178 42.076 92.762 42.396 C 92.583 42.532 92.404 42.666 92.224 42.8 C 91.797 43.119 91.382 43.451 90.969 43.789 C 90.796 43.929 90.623 44.066 90.448 44.202 C 90.233 44.369 90.025 44.544 89.818 44.723 C 89.68 44.842 89.541 44.959 89.399 45.074 C 89.161 45.268 88.928 45.468 88.695 45.669 C 88.623 45.73 88.551 45.791 88.48 45.853 C 88.225 46.07 87.974 46.29 87.727 46.517 C 87.616 46.617 87.505 46.715 87.392 46.813 C 87.23 46.954 87.072 47.098 86.914 47.241 C 86.848 47.301 86.781 47.36 86.715 47.42 C 86.682 47.45 86.649 47.48 86.615 47.51 C 86.551 47.568 86.487 47.625 86.423 47.682 C 86.146 47.93 85.874 48.184 85.602 48.439 C 85.521 48.515 85.438 48.592 85.357 48.669 C 85.094 48.913 84.834 49.158 84.584 49.415 C 84.51 49.488 84.435 49.554 84.356 49.621 C 84.107 49.838 83.877 50.074 83.644 50.307 C 83.593 50.358 83.543 50.408 83.492 50.459 C 83.387 50.564 83.281 50.67 83.176 50.776 C 83.041 50.91 82.906 51.045 82.772 51.179 C 82.668 51.283 82.564 51.387 82.46 51.492 C 82.41 51.541 82.36 51.591 82.311 51.64 C 81.965 51.985 81.965 51.985 81.639 52.348 C 81.53 52.474 81.409 52.59 81.289 52.706 C 81.153 52.839 81.027 52.979 80.903 53.123 C 80.778 53.266 80.646 53.402 80.517 53.539 C 80.307 53.76 80.101 53.982 79.903 54.213 C 79.819 54.297 79.752 54.319 79.633 54.321 C 79.585 54.318 79.585 54.318 79.537 54.315 C 79.482 54.312 79.482 54.312 79.427 54.309 C 79.388 54.307 79.349 54.305 79.308 54.303 C 78.835 54.279 78.361 54.272 77.887 54.273 C 77.846 54.273 77.806 54.273 77.765 54.273 C 73.513 54.279 69.793 55.669 65.679 58.733 C 65.642 58.764 65.605 58.794 65.566 58.825 C 65.305 59.037 65.048 59.254 64.792 59.472 C 64.725 59.529 64.657 59.585 64.59 59.642 C 64.254 59.926 63.932 60.223 63.613 60.526 C 63.532 60.603 63.451 60.678 63.369 60.754 C 62.722 61.352 62.722 61.352 62.126 62 C 62.048 62.088 61.965 62.17 61.881 62.253 C 61.747 62.385 61.621 62.522 61.498 62.664 C 61.411 62.765 61.32 62.863 61.23 62.961 C 61.069 63.137 60.917 63.319 60.766 63.505 C 60.652 63.645 60.534 63.78 60.415 63.916 C 60.192 64.171 59.98 64.434 59.773 64.702 C 59.71 64.784 59.646 64.865 59.583 64.945 C 59.1 65.561 58.638 66.189 58.19 66.831 C 58.115 66.937 58.041 67.043 57.966 67.148 C 57.698 67.53 57.434 67.913 57.191 68.312 C 57.093 68.472 56.991 68.63 56.89 68.787 C 56.587 69.26 56.298 69.74 56.016 70.226 C 55.996 70.261 55.975 70.295 55.954 70.331 C 55.049 71.897 54.2 73.51 53.465 75.164 C 53.431 75.236 53.431 75.236 53.391 75.276 C 52.61 75.412 51.796 75.363 51.005 75.356 C 51.138 71.816 51.859 68.313 53.232 63.903 C 53.243 63.87 53.254 63.838 53.265 63.804 C 53.92 61.816 54.693 59.875 55.578 57.978 C 55.598 57.936 55.618 57.895 55.637 57.851 C 55.774 57.56 55.914 57.272 56.056 56.984 C 56.078 56.939 56.078 56.939 56.101 56.892 C 56.5 56.08 56.901 55.273 57.356 54.49 C 57.437 54.348 57.511 54.204 57.586 54.058 C 57.802 53.645 58.042 53.248 58.282 52.849 C 58.317 52.792 58.317 52.792 58.351 52.734 C 59.152 51.403 60.001 50.095 60.907 48.832 C 60.928 48.803 60.949 48.773 60.971 48.743 C 61.122 48.533 61.272 48.325 61.424 48.116 C 61.446 48.086 61.469 48.055 61.492 48.024 C 61.811 47.585 62.138 47.153 62.474 46.726 C 62.532 46.651 62.592 46.576 62.65 46.5 C 62.917 46.158 63.192 45.822 63.469 45.488 C 63.551 45.388 63.634 45.287 63.716 45.186 C 63.908 44.951 64.106 44.721 64.304 44.49 C 64.367 44.418 64.428 44.346 64.49 44.274 C 64.706 44.019 64.926 43.768 65.153 43.521 C 65.229 43.437 65.304 43.353 65.378 43.267 C 65.548 43.073 65.723 42.883 65.897 42.693 C 65.959 42.627 66.02 42.561 66.08 42.495 C 66.275 42.282 66.471 42.073 66.677 41.871 C 66.747 41.799 66.812 41.726 66.878 41.65 C 67.135 41.354 67.409 41.073 67.684 40.793 C 67.78 40.695 67.874 40.597 67.969 40.496 C 68.401 40.039 68.765 39.669 69.397 39.548 C 69.542 39.518 69.682 39.477 69.823 39.437 C 70.019 39.381 70.216 39.33 70.413 39.279 C 70.456 39.267 70.498 39.256 70.542 39.244 C 74.417 38.224 78.371 37.531 86.77 36.975 Z" fill="#E4007F" style=""/>
  <path d="M 25.118 72.175 C 25.347 72.201 25.559 72.255 25.78 72.32 C 25.818 72.33 25.857 72.342 25.897 72.354 C 26.029 72.391 26.161 72.429 26.294 72.468 C 26.391 72.496 26.489 72.524 26.585 72.551 C 26.806 72.614 27.027 72.678 27.248 72.742 C 27.658 72.86 28.07 72.979 28.481 73.097 C 28.634 73.14 28.787 73.185 28.94 73.229 C 28.999 73.245 28.999 73.245 29.058 73.263 C 29.503 73.39 29.947 73.517 30.392 73.645 C 30.433 73.657 30.473 73.669 30.515 73.681 C 30.718 73.739 30.921 73.798 31.125 73.856 C 31.461 73.953 31.797 74.049 32.132 74.146 C 32.311 74.197 32.489 74.248 32.667 74.3 C 32.72 74.315 32.72 74.315 32.773 74.33 C 32.986 74.391 33.199 74.452 33.411 74.513 C 34.42 74.803 35.43 75.093 36.438 75.383 C 36.633 75.438 36.827 75.495 37.021 75.55 C 37.792 75.771 38.562 75.992 39.332 76.214 C 39.632 76.299 39.931 76.386 40.231 76.472 C 40.473 76.541 40.716 76.611 40.958 76.681 C 41.11 76.724 41.26 76.767 41.411 76.81 C 41.48 76.831 41.549 76.85 41.618 76.87 C 41.649 76.879 41.681 76.888 41.714 76.897 C 41.746 76.906 41.777 76.915 41.809 76.925 C 41.873 76.943 41.937 76.962 42 76.981 C 42.173 77.033 42.344 77.076 42.522 77.109 C 43.261 77.259 43.688 77.689 44.19 78.213 C 44.304 78.331 44.419 78.446 44.534 78.562 C 44.751 78.781 44.967 79.002 45.181 79.223 C 45.425 79.474 45.671 79.724 45.918 79.972 C 46.281 80.34 46.643 80.709 47.004 81.08 C 47.042 81.12 47.081 81.159 47.12 81.198 C 47.173 81.253 47.226 81.308 47.279 81.363 C 47.312 81.396 47.344 81.429 47.378 81.464 C 47.466 81.559 47.466 81.559 47.533 81.654 C 47.631 81.79 47.696 81.864 47.861 81.907 C 48.01 81.921 48.157 81.924 48.306 81.924 C 48.363 81.925 48.42 81.927 48.477 81.927 C 48.632 81.93 48.786 81.931 48.94 81.932 C 49.037 81.932 49.134 81.933 49.23 81.933 C 49.569 81.937 49.907 81.939 50.245 81.939 C 50.559 81.939 50.873 81.942 51.187 81.948 C 51.457 81.952 51.728 81.954 51.998 81.954 C 52.159 81.954 52.32 81.954 52.481 81.958 C 53.249 81.999 53.249 81.999 53.908 81.675 C 54.011 81.556 54.103 81.432 54.192 81.303 C 54.326 81.118 54.485 80.954 54.64 80.785 C 54.708 80.71 54.775 80.636 54.842 80.561 C 58.099 76.957 58.099 76.957 60.711 76.525 C 61.371 76.413 62.008 76.236 62.649 76.048 C 62.676 76.04 62.703 76.033 62.73 76.024 C 62.978 75.952 63.226 75.879 63.474 75.806 C 63.866 75.689 64.258 75.575 64.651 75.463 C 64.693 75.451 64.693 75.451 64.735 75.439 C 64.872 75.4 65.011 75.361 65.149 75.321 C 65.392 75.251 65.634 75.181 65.878 75.113 C 65.956 75.089 66.034 75.068 66.112 75.045 C 66.865 74.829 67.618 74.613 68.371 74.396 C 68.439 74.377 68.507 74.357 68.575 74.338 C 68.711 74.298 68.847 74.26 68.982 74.22 C 69.015 74.21 69.049 74.201 69.083 74.192 C 69.15 74.172 69.218 74.153 69.285 74.133 C 69.807 73.983 70.328 73.834 70.85 73.684 C 70.972 73.648 71.096 73.613 71.218 73.578 C 71.582 73.473 71.945 73.369 72.308 73.265 C 73.011 73.063 73.713 72.862 74.415 72.658 C 74.502 72.632 74.588 72.608 74.674 72.583 C 74.701 72.575 74.729 72.567 74.757 72.559 C 74.81 72.543 74.863 72.528 74.917 72.513 C 75.091 72.462 75.266 72.411 75.44 72.36 C 75.527 72.335 75.614 72.309 75.7 72.285 C 75.739 72.273 75.777 72.262 75.817 72.25 C 75.87 72.235 75.87 72.235 75.924 72.22 C 75.969 72.206 75.969 72.206 76.014 72.193 C 76.098 72.175 76.098 72.175 76.257 72.175 C 76.267 72.787 76.236 73.393 76.192 74.004 C 76.188 74.052 76.184 74.1 76.181 74.15 C 75.918 77.81 75.471 81.493 74.586 85.059 C 74.579 85.088 74.572 85.117 74.565 85.147 C 74.289 86.252 73.968 87.34 73.565 88.406 C 73.554 88.434 73.544 88.463 73.533 88.491 C 73.342 89 73.112 89.472 72.784 89.909 C 72.751 89.955 72.751 89.955 72.718 90.002 C 72.652 90.091 72.586 90.179 72.518 90.268 C 72.49 90.305 72.49 90.305 72.462 90.343 C 72.236 90.642 72.003 90.935 71.763 91.222 C 71.746 91.243 71.728 91.264 71.71 91.285 C 71.441 91.605 71.163 91.915 70.877 92.218 C 70.776 92.324 70.677 92.432 70.578 92.541 C 70.348 92.794 70.111 93.039 69.868 93.281 C 69.807 93.343 69.745 93.405 69.684 93.466 C 69.49 93.66 69.296 93.85 69.086 94.027 C 69.014 94.09 68.947 94.156 68.88 94.225 C 68.763 94.344 68.641 94.453 68.514 94.562 C 68.426 94.64 68.339 94.719 68.252 94.799 C 68.046 94.99 67.835 95.171 67.616 95.348 C 67.504 95.441 67.397 95.537 67.289 95.636 C 67.078 95.83 66.857 96.012 66.633 96.192 C 66.564 96.249 66.495 96.305 66.427 96.362 C 66.35 96.425 66.273 96.488 66.196 96.55 C 66.172 96.57 66.148 96.59 66.123 96.61 C 65.79 96.883 65.455 97.152 65.111 97.412 C 65.037 97.47 64.962 97.528 64.887 97.585 C 64.258 98.069 63.62 98.541 62.973 99 C 62.921 99.037 62.87 99.076 62.82 99.116 C 62.644 99.254 62.644 99.254 62.512 99.257 C 62.397 99.206 62.315 99.143 62.219 99.061 C 62.181 99.028 62.143 98.996 62.104 98.962 C 62.084 98.945 62.064 98.928 62.043 98.911 C 61.98 98.857 61.917 98.803 61.853 98.75 C 61.605 98.543 61.363 98.33 61.125 98.111 C 61.044 98.037 60.96 97.964 60.877 97.892 C 60.52 97.581 60.171 97.256 59.842 96.915 C 59.771 96.845 59.698 96.781 59.622 96.717 C 59.376 96.502 59.148 96.269 58.918 96.037 C 58.837 95.957 58.757 95.876 58.676 95.796 C 58.453 95.573 58.231 95.351 58.027 95.11 C 57.901 94.967 57.762 94.835 57.626 94.701 C 57.434 94.512 57.248 94.321 57.072 94.115 C 56.995 94.028 56.914 93.947 56.831 93.866 C 56.695 93.735 56.572 93.596 56.447 93.454 C 56.329 93.318 56.205 93.187 56.08 93.056 C 55.886 92.85 55.694 92.644 55.506 92.432 C 55.404 92.318 55.3 92.205 55.195 92.092 C 55.052 91.936 54.911 91.779 54.773 91.619 C 54.693 91.528 54.612 91.438 54.53 91.349 C 54.406 91.213 54.29 91.074 54.174 90.932 C 54.013 90.731 53.841 90.543 53.662 90.357 C 53.511 90.196 53.511 90.196 53.511 90.109 C 51.648 90.109 49.784 90.109 47.864 90.109 C 47.838 90.161 47.812 90.214 47.784 90.268 C 47.718 90.343 47.652 90.417 47.583 90.489 C 47.442 90.64 47.305 90.794 47.175 90.956 C 46.982 91.196 46.772 91.418 46.561 91.642 C 46.445 91.765 46.334 91.889 46.224 92.016 C 46.113 92.144 45.998 92.268 45.883 92.393 C 45.768 92.518 45.654 92.644 45.54 92.77 C 45.344 92.989 45.144 93.205 44.944 93.421 C 44.881 93.49 44.818 93.559 44.755 93.627 C 44.571 93.827 44.388 94.026 44.193 94.216 C 44.125 94.285 44.062 94.357 44 94.43 C 43.818 94.639 43.62 94.832 43.423 95.026 C 43.293 95.154 43.166 95.282 43.049 95.421 C 42.839 95.664 42.607 95.888 42.38 96.114 C 42.299 96.195 42.219 96.275 42.139 96.356 C 41.689 96.806 41.689 96.806 41.447 97.011 C 41.34 97.104 41.242 97.205 41.144 97.306 C 40.992 97.46 40.838 97.608 40.673 97.748 C 40.581 97.828 40.492 97.91 40.403 97.994 C 40.191 98.193 39.975 98.382 39.748 98.565 C 39.584 98.697 39.425 98.835 39.266 98.973 C 39.222 99.011 39.178 99.049 39.134 99.086 C 39.086 99.127 39.038 99.169 38.993 99.212 C 38.916 99.255 38.916 99.255 38.823 99.243 C 38.716 99.214 38.649 99.18 38.558 99.118 C 38.513 99.087 38.513 99.087 38.468 99.056 C 38.437 99.034 38.405 99.011 38.372 98.989 C 38.339 98.966 38.306 98.943 38.273 98.919 C 37.976 98.711 37.691 98.491 37.407 98.267 C 37.245 98.14 37.081 98.018 36.914 97.899 C 36.703 97.746 36.498 97.585 36.292 97.425 C 36.27 97.408 36.248 97.391 36.226 97.374 C 35.87 97.097 35.52 96.815 35.171 96.529 C 35.108 96.478 35.043 96.426 34.98 96.374 C 34.722 96.164 34.467 95.95 34.213 95.734 C 34.167 95.695 34.121 95.655 34.074 95.616 C 33.795 95.379 33.518 95.137 33.248 94.889 C 33.165 94.814 33.082 94.74 32.997 94.667 C 32.79 94.487 32.59 94.3 32.389 94.114 C 32.34 94.068 32.29 94.022 32.24 93.976 C 31.879 93.641 31.526 93.299 31.178 92.952 C 31.122 92.897 31.122 92.897 31.066 92.841 C 30.888 92.662 30.715 92.481 30.55 92.289 C 30.448 92.171 30.34 92.058 30.233 91.945 C 30.047 91.747 29.87 91.544 29.7 91.332 C 29.621 91.234 29.541 91.14 29.46 91.046 C 29.158 90.696 28.886 90.325 28.618 89.949 C 28.589 89.909 28.589 89.909 28.559 89.869 C 28.279 89.481 28.076 89.082 27.902 88.637 C 27.876 88.571 27.876 88.571 27.849 88.503 C 26.511 85.044 25.942 81.3 25.118 72.175 Z M 29.651 75.077 C 29.117 76.756 28.767 78.491 28.618 80.247 C 28.613 80.294 28.613 80.294 28.609 80.343 C 28.364 83.21 28.898 86.332 30.646 88.677 C 30.673 88.714 30.673 88.714 30.702 88.753 C 32.135 90.659 34.206 91.791 36.539 92.161 C 36.809 92.199 37.076 92.223 37.35 92.224 C 37.382 92.225 37.413 92.225 37.445 92.225 C 39.128 92.237 40.696 91.927 42.218 91.182 C 42.246 91.168 42.275 91.155 42.304 91.141 C 43.017 90.792 43.675 90.337 44.285 89.83 C 44.318 89.803 44.318 89.803 44.352 89.775 C 44.861 89.358 45.347 88.902 45.754 88.383 C 45.843 88.271 45.936 88.162 46.03 88.054 C 46.361 87.655 46.642 87.22 46.915 86.78 C 46.933 86.75 46.952 86.721 46.971 86.69 C 47.105 86.484 47.105 86.484 47.148 86.251 C 47.102 86.158 47.056 86.08 46.997 85.995 C 46.98 85.971 46.964 85.947 46.947 85.922 C 46.896 85.846 46.843 85.77 46.791 85.695 C 46.773 85.671 46.758 85.647 46.74 85.623 C 46.403 85.137 46.044 84.671 45.658 84.222 C 45.558 84.104 45.458 83.985 45.359 83.865 C 45.198 83.919 45.147 84.025 45.055 84.159 C 44.877 84.416 44.687 84.66 44.484 84.899 C 44.448 84.943 44.412 84.987 44.375 85.031 C 43.963 85.523 43.521 85.976 43.013 86.371 C 42.963 86.411 42.912 86.452 42.862 86.492 C 42.053 87.135 41.147 87.611 40.15 87.882 C 40.12 87.89 40.09 87.898 40.06 87.907 C 39.606 88.033 39.156 88.056 38.689 88.058 C 38.661 88.058 38.633 88.059 38.605 88.059 C 38.071 88.062 37.552 87.99 37.045 87.814 C 37.016 87.804 36.986 87.794 36.955 87.784 C 36.002 87.444 35.207 86.789 34.622 85.973 C 34.606 85.951 34.59 85.929 34.574 85.906 C 34.038 85.143 33.717 84.264 33.516 83.358 C 33.509 83.323 33.5 83.289 33.493 83.253 C 33.357 82.605 33.335 81.963 33.337 81.303 C 33.337 81.239 33.337 81.239 33.337 81.175 C 33.339 80.539 33.36 79.92 33.469 79.292 C 33.477 79.246 33.485 79.198 33.493 79.15 C 33.641 78.285 33.826 77.407 34.124 76.58 C 34.15 76.502 34.15 76.502 34.145 76.389 C 32.929 75.939 31.701 75.561 30.446 75.236 C 30.417 75.229 30.388 75.221 30.357 75.213 C 30.27 75.19 30.183 75.167 30.095 75.146 C 30.069 75.139 30.043 75.131 30.015 75.125 C 29.887 75.092 29.785 75.077 29.651 75.077 Z M 71.26 75.149 C 71.229 75.157 71.199 75.163 71.168 75.172 C 71.068 75.197 70.968 75.223 70.868 75.249 C 70.834 75.257 70.799 75.266 70.764 75.275 C 68.955 75.714 68.955 75.714 67.23 76.389 C 67.282 76.64 67.347 76.885 67.418 77.13 C 67.753 78.306 68.028 79.527 68.033 80.756 C 68.034 80.796 68.034 80.836 68.034 80.876 C 68.034 80.96 68.034 81.043 68.035 81.126 C 68.035 81.251 68.036 81.376 68.037 81.501 C 68.041 82.216 67.972 82.914 67.798 83.609 C 67.789 83.651 67.778 83.691 67.768 83.734 C 67.523 84.693 67.105 85.567 66.474 86.331 C 66.456 86.353 66.439 86.374 66.421 86.397 C 65.664 87.317 64.505 87.892 63.333 88.041 C 62.625 88.076 61.911 88.081 61.226 87.882 C 61.192 87.872 61.159 87.863 61.125 87.853 C 60.097 87.555 59.188 87.046 58.363 86.371 C 58.34 86.353 58.318 86.335 58.295 86.316 C 57.814 85.921 57.362 85.495 56.976 85.007 C 56.884 84.892 56.79 84.78 56.695 84.668 C 56.48 84.411 56.287 84.14 56.095 83.865 C 55.93 83.928 55.835 84.048 55.725 84.178 C 55.705 84.203 55.685 84.227 55.664 84.252 C 55.248 84.749 54.866 85.276 54.505 85.814 C 54.463 85.874 54.463 85.874 54.42 85.935 C 54.394 85.974 54.367 86.012 54.34 86.052 C 54.318 86.086 54.295 86.12 54.271 86.154 C 54.214 86.28 54.219 86.32 54.266 86.45 C 54.325 86.563 54.39 86.67 54.457 86.778 C 54.487 86.825 54.487 86.825 54.517 86.873 C 54.825 87.366 55.162 87.836 55.539 88.279 C 55.574 88.322 55.61 88.364 55.644 88.407 C 56.08 88.93 56.553 89.412 57.09 89.83 C 57.132 89.866 57.175 89.902 57.218 89.939 C 58.515 91.023 60.109 91.732 61.759 92.07 C 61.788 92.075 61.817 92.081 61.846 92.087 C 62.422 92.196 62.994 92.231 63.579 92.229 C 63.613 92.229 63.647 92.229 63.682 92.229 C 64.21 92.226 64.723 92.205 65.241 92.097 C 65.281 92.088 65.321 92.081 65.361 92.073 C 66.961 91.733 68.449 91.039 69.631 89.893 C 69.676 89.848 69.723 89.804 69.769 89.76 C 71.834 87.797 72.723 84.913 72.801 82.119 C 72.804 81.963 72.804 81.807 72.804 81.651 C 72.804 81.623 72.804 81.595 72.804 81.565 C 72.799 79.812 72.52 78.093 72.099 76.395 C 72.087 76.35 72.087 76.35 72.077 76.305 C 71.973 75.89 71.855 75.483 71.723 75.077 C 71.558 75.077 71.417 75.109 71.26 75.149 Z M 35.934 77.145 C 35.192 79.288 34.727 81.697 35.745 83.841 C 35.768 83.889 35.792 83.937 35.815 83.985 C 35.838 84.03 35.859 84.075 35.882 84.122 C 36.409 85.151 37.281 85.959 38.378 86.338 C 39.558 86.697 40.72 86.504 41.795 85.933 C 42.55 85.52 43.269 84.935 43.808 84.264 C 43.844 84.219 43.881 84.174 43.918 84.129 C 44.176 83.813 44.416 83.489 44.643 83.149 C 44.577 82.977 44.449 82.866 44.32 82.74 C 44.284 82.704 44.284 82.704 44.248 82.669 C 44.11 82.533 43.968 82.401 43.819 82.274 C 43.716 82.184 43.616 82.09 43.516 81.996 C 43.288 81.78 43.058 81.571 42.813 81.376 C 42.722 81.303 42.633 81.23 42.544 81.155 C 42.129 80.808 41.701 80.483 41.263 80.167 C 41.235 80.147 41.208 80.127 41.178 80.107 C 39.851 79.146 38.435 78.333 36.97 77.6 C 36.943 77.586 36.916 77.572 36.888 77.558 C 36.426 77.283 36.426 77.283 35.934 77.145 Z M 65.107 77.263 C 65.067 77.282 65.067 77.282 65.028 77.301 C 64.943 77.342 64.857 77.384 64.772 77.426 C 64.742 77.441 64.713 77.455 64.683 77.47 C 64.471 77.572 64.26 77.677 64.048 77.782 C 64.009 77.801 64.009 77.801 63.968 77.821 C 63.257 78.174 62.573 78.56 61.899 78.98 C 61.799 79.043 61.698 79.105 61.597 79.167 C 60.718 79.706 59.881 80.316 59.078 80.962 C 59.041 80.992 59.004 81.021 58.966 81.052 C 58.509 81.423 58.065 81.808 57.636 82.211 C 57.561 82.28 57.486 82.351 57.41 82.42 C 57.357 82.47 57.304 82.519 57.251 82.568 C 57.215 82.602 57.215 82.602 57.177 82.637 C 57.025 82.779 56.878 82.923 56.731 83.07 C 56.795 83.266 56.909 83.411 57.033 83.572 C 57.065 83.615 57.065 83.615 57.097 83.658 C 57.511 84.198 57.946 84.752 58.481 85.178 C 58.519 85.208 58.557 85.239 58.597 85.271 C 58.889 85.503 59.191 85.71 59.515 85.893 C 59.539 85.907 59.562 85.92 59.587 85.934 C 60.192 86.272 60.851 86.479 61.543 86.529 C 61.601 86.534 61.601 86.534 61.66 86.538 C 62.605 86.571 63.571 86.231 64.287 85.615 C 64.32 85.587 64.352 85.559 64.386 85.531 C 65.371 84.669 65.877 83.502 66.116 82.235 C 66.125 82.188 66.134 82.14 66.144 82.091 C 66.404 80.426 66.023 78.702 65.44 77.145 C 65.314 77.145 65.219 77.208 65.107 77.263 Z" fill="#E4007F" style=""/>
  <path d="M 79.167 55.58 C 79.238 55.58 79.309 55.58 79.38 55.58 C 80.424 55.582 81.461 55.6 82.5 55.711 C 82.577 55.719 82.655 55.728 82.732 55.735 C 85.839 56.06 88.893 56.727 91.857 57.712 C 91.887 57.722 91.915 57.731 91.945 57.742 C 92.353 57.877 92.756 58.024 93.157 58.177 C 93.157 58.203 93.157 58.23 93.157 58.257 C 93.118 58.268 93.078 58.279 93.037 58.291 C 89.824 59.212 86.675 60.319 83.653 61.756 C 83.585 61.788 83.585 61.788 83.516 61.821 C 82.517 62.294 81.534 62.793 80.584 63.359 C 80.476 63.423 80.368 63.486 80.26 63.548 C 79.565 63.948 78.882 64.386 78.235 64.862 C 78.126 64.937 78.126 64.937 78.046 64.937 C 78.037 64.969 78.028 65.002 78.018 65.035 C 77.968 65.172 77.906 65.292 77.836 65.419 C 77.374 66.254 76.892 67.342 76.848 68.313 C 76.823 68.631 76.823 68.631 76.693 68.746 C 76.575 68.807 76.457 68.852 76.331 68.896 C 76.257 68.925 76.182 68.954 76.108 68.983 C 76.023 69.016 75.937 69.048 75.852 69.08 C 75.638 69.16 75.425 69.246 75.213 69.33 C 73.799 69.898 72.376 70.438 70.94 70.949 C 70.848 70.982 70.757 71.014 70.664 71.048 C 68.111 71.959 65.521 72.768 62.895 73.447 C 62.848 73.459 62.801 73.472 62.752 73.484 C 60.389 74.096 58.011 74.637 55.596 75 C 55.553 75.007 55.553 75.007 55.509 75.014 C 55.428 75.026 55.348 75.037 55.267 75.049 C 55.223 75.056 55.178 75.062 55.132 75.068 C 55.022 75.077 55.022 75.077 54.902 75.038 C 55.359 74.062 55.848 73.105 56.386 72.172 C 56.458 72.047 56.529 71.923 56.6 71.798 C 56.891 71.288 57.19 70.784 57.503 70.287 C 57.566 70.187 57.628 70.087 57.691 69.987 C 58.259 69.08 58.858 68.186 59.494 67.326 C 59.562 67.235 59.629 67.142 59.696 67.051 C 59.962 66.688 60.232 66.326 60.509 65.97 C 60.527 65.948 60.545 65.926 60.563 65.902 C 60.927 65.435 61.301 64.978 61.684 64.528 C 61.723 64.482 61.762 64.436 61.801 64.39 C 62.047 64.101 62.296 63.816 62.553 63.538 C 62.652 63.431 62.749 63.323 62.846 63.215 C 62.967 63.079 63.093 62.949 63.223 62.822 C 63.291 62.752 63.354 62.68 63.417 62.606 C 63.585 62.413 63.765 62.232 63.946 62.052 C 63.979 62.019 64.011 61.987 64.044 61.954 C 64.216 61.783 64.39 61.616 64.575 61.459 C 64.648 61.395 64.716 61.328 64.784 61.259 C 64.93 61.111 65.085 60.976 65.241 60.842 C 65.283 60.806 65.325 60.769 65.367 60.733 C 65.487 60.63 65.607 60.527 65.727 60.425 C 65.793 60.368 65.859 60.311 65.925 60.254 C 66.27 59.957 66.628 59.682 66.991 59.41 C 67.036 59.376 67.036 59.376 67.082 59.342 C 68.123 58.558 69.218 57.867 70.371 57.262 C 70.425 57.235 70.425 57.235 70.479 57.205 C 71.533 56.647 72.577 56.248 73.752 56.043 C 73.878 56.021 74.004 55.997 74.13 55.974 C 74.657 55.88 75.187 55.806 75.72 55.744 C 75.772 55.737 75.823 55.731 75.877 55.725 C 76.973 55.6 78.065 55.578 79.167 55.58 Z" fill="#E4007F" style=""/>
</svg>